<?xml version="1.0" encoding="UTF-8"?>
<svg version="1.1" xmlns="http://www.w3.org/2000/svg" width="2000" height="1900">
<path d="M0 0 C0.89528412 -0.00570007 1.79056824 -0.01140015 2.71298218 -0.01727295 C4.60405305 -0.02669078 6.4951401 -0.03324409 8.38623047 -0.03710938 C11.2434649 -0.04677362 14.09996654 -0.07781067 16.95703125 -0.109375 C33.8701323 -0.20898014 48.02177068 1.85705078 60.6484375 14.203125 C70.26372783 25.67248476 73.87508592 38.40514751 73.7109375 53.140625 C73.70642578 53.91986328 73.70191406 54.69910156 73.69726562 55.50195312 C73.68560658 57.40237768 73.66767627 59.30276206 73.6484375 61.203125 C74.59781378 61.20128141 75.54719006 61.19943783 76.52533531 61.19753838 C99.6450413 61.15310358 122.76474173 61.12025652 145.88448143 61.09950066 C157.06509292 61.08919603 168.24567617 61.07515123 179.42626953 61.05224609 C189.17332085 61.03228734 198.92035171 61.01940265 208.66742289 61.01494801 C213.82653945 61.01234485 218.9855975 61.00624319 224.14469528 60.99166489 C229.00538261 60.97804172 233.86598759 60.97391192 238.7266922 60.97690964 C240.50598473 60.97636159 242.28528016 60.97241246 244.06455612 60.96471405 C259.58037103 60.90090167 273.81224929 61.75285671 285.9609375 72.703125 C293.16194432 80.49166167 297.78775697 90.94282471 297.76196289 101.54418945 C297.76188736 102.5848909 297.76181183 103.62559235 297.76173401 104.6978302 C297.75657272 105.8094603 297.75141144 106.92109039 297.74609375 108.06640625 C297.7446788 109.21352585 297.74326385 110.36064545 297.74180603 111.54252625 C297.73621611 115.20025254 297.72366539 118.85791725 297.7109375 122.515625 C297.7059212 124.99804599 297.70135852 127.48046794 297.69726562 129.96289062 C297.68624997 136.0429897 297.6695218 142.12305295 297.6484375 148.203125 C298.33219955 148.26901321 299.01596161 148.33490143 299.72044373 148.40278625 C300.61892532 148.49069931 301.51740692 148.57861237 302.44311523 148.66918945 C303.77813332 148.79895927 303.77813332 148.79895927 305.14012146 148.93135071 C315.79636678 150.08594745 323.79735827 153.45984753 331.4609375 160.953125 C338.24032288 171.02535471 338.8007899 181.42411336 338.8515625 193.2109375 C338.85726257 194.25402069 338.86296265 195.29710388 338.86883545 196.37179565 C338.87824352 198.57207234 338.88480266 200.77236285 338.88867188 202.97265625 C338.8983473 206.29713245 338.92939923 209.62098177 338.9609375 212.9453125 C339.11911037 244.36584543 339.11911037 244.36584543 329.6484375 254.203125 C322.25261886 260.66123249 307.58685136 266.203125 297.6484375 266.203125 C297.65731995 266.90310608 297.66620239 267.60308716 297.675354 268.32427979 C297.75602987 274.97215973 297.81666789 281.61989993 297.85568619 288.26816177 C297.87642151 291.68484907 297.90447512 295.10112658 297.95019531 298.51757812 C298.00260897 302.45958277 298.02149886 306.40143069 298.0390625 310.34375 C298.05970764 311.55049377 298.08035278 312.75723755 298.10162354 314.00054932 C298.10483828 326.34668234 294.88099129 336.83392671 286.6484375 346.203125 C277.93262259 354.50465986 268.5587444 358.31506645 256.59571838 358.34356689 C255.54822911 358.34802358 255.54822911 358.34802358 254.47957844 358.3525703 C252.14595996 358.36122315 249.81239299 358.36276262 247.47875977 358.36425781 C245.80304862 358.36888828 244.12733852 358.37391325 242.45162964 358.37930298 C237.90414762 358.392404 233.35668034 358.39886705 228.80918241 358.40331364 C225.96763934 358.40624711 223.12610029 358.41035237 220.28455925 358.41481781 C211.39239444 358.42848457 202.50023882 358.43815614 193.60806423 358.4420197 C183.34565443 358.44650335 173.08337762 358.46406891 162.82100827 358.4930203 C154.88542011 358.5146304 146.9498694 358.52472357 139.01425213 358.52606082 C134.27561415 358.52710901 129.53710133 358.5330203 124.79849434 358.55088043 C120.34235078 358.56735026 115.88642665 358.56952194 111.43026352 358.56074142 C109.79602788 358.55997056 108.16178049 358.56432032 106.52757454 358.57419968 C104.29416854 358.58690854 102.06154106 358.58104884 99.82814026 358.57061768 C98.57915231 358.57208424 97.33016436 358.5735508 96.04332829 358.5750618 C89.74510141 357.88504186 85.69903671 354.94129407 81.6484375 350.203125 C80.12207031 347.31567383 80.12207031 347.31567383 78.8515625 344.16015625 C78.366875 343.00322266 77.8821875 341.84628906 77.3828125 340.65429688 C76.40228568 338.25071599 75.42819746 335.84449728 74.4609375 333.43554688 C69.97650737 322.78502532 64.44201096 314.27857028 53.75958252 309.20423889 C47.24662153 307.10847811 40.3904053 307.48970936 33.6171875 307.5390625 C31.97391401 307.53568661 30.33064296 307.5308276 28.68737793 307.52456665 C25.25797549 307.51723157 21.82922809 307.52779079 18.39990234 307.55126953 C14.02873328 307.57975614 9.65909964 307.56333386 5.28798676 307.53340721 C1.89903428 307.51524221 -1.48956088 307.521134 -4.87852478 307.53404617 C-6.48909187 307.53735487 -8.0996926 307.53338354 -9.71022034 307.52164841 C-21.14514544 307.45659001 -29.79671425 308.66585176 -38.4140625 316.828125 C-44.713347 324.42544389 -48.29805877 334.17989123 -52.20263672 343.16064453 C-52.92127587 344.8080006 -53.66668118 346.44360813 -54.4140625 348.078125 C-54.79691406 348.96242188 -55.17976563 349.84671875 -55.57421875 350.7578125 C-58.29134531 354.49610092 -61.02044718 356.52054649 -65.3515625 358.203125 C-70.95657294 358.94051008 -76.52076311 358.86704598 -82.16552734 358.81835938 C-83.87460378 358.82186388 -85.58367695 358.82752618 -87.29273987 358.83517456 C-91.91904111 358.84938702 -96.5447454 358.83239445 -101.17098951 358.80888939 C-106.02297674 358.78872911 -110.87494041 358.79466275 -115.72695923 358.79699707 C-123.87601518 358.79694354 -132.02483892 358.77721643 -140.17382812 358.74511719 C-149.57830099 358.70825121 -158.98246952 358.69943881 -168.38700521 358.7064147 C-177.45219405 358.71273392 -186.51727916 358.70193758 -195.58244705 358.68244934 C-199.43147898 358.67430138 -203.2804577 358.671561 -207.12949753 358.67314148 C-211.66864571 358.67402451 -216.20750755 358.65969231 -220.74658012 358.63391495 C-222.40653151 358.6267906 -224.06651344 358.6246514 -225.72647667 358.62803268 C-239.57756311 358.6508528 -251.66519574 357.06141399 -262.359375 347.38671875 C-272.39111177 336.63842936 -274.665794 325.03136542 -274.546875 310.83203125 C-274.5440451 309.55456528 -274.54121521 308.2770993 -274.53829956 306.96092224 C-274.52903257 303.58578922 -274.51110316 300.21093296 -274.4888916 296.83587646 C-274.46833113 293.38344701 -274.45927616 289.93098882 -274.44921875 286.47851562 C-274.42721164 279.71997637 -274.39377375 272.96156664 -274.3515625 266.203125 C-275.42897705 265.94337891 -276.5063916 265.68363281 -277.61645508 265.41601562 C-279.05555326 265.06401444 -280.49459659 264.71178892 -281.93359375 264.359375 C-282.64068481 264.18954102 -283.34777588 264.01970703 -284.07629395 263.84472656 C-293.63979971 261.49029431 -304.23683769 258.45723509 -309.9765625 249.828125 C-316.76554671 237.73940855 -315.7908534 223.2772999 -315.68774414 209.87109375 C-315.66406072 206.57787689 -315.66721413 203.28546863 -315.67382812 199.9921875 C-315.66825207 197.86197443 -315.66114265 195.7317647 -315.65234375 193.6015625 C-315.65325516 192.6356015 -315.65416656 191.6696405 -315.65510559 190.67440796 C-315.54467238 179.84285228 -314.9107829 168.50357478 -307.4765625 160.078125 C-298.66560615 151.51891026 -286.47957569 148.10764862 -274.3515625 148.203125 C-274.36044495 147.58053299 -274.36932739 146.95794098 -274.378479 146.31648254 C-274.46766067 139.77789587 -274.52758763 133.23948473 -274.57128906 126.70043945 C-274.59128072 124.26709971 -274.61848324 121.83380725 -274.65332031 119.40063477 C-275.11197752 86.51896003 -275.11197752 86.51896003 -263.3515625 74.203125 C-262.75472656 73.56632812 -262.15789063 72.92953125 -261.54296875 72.2734375 C-252.35958462 63.37643749 -240.8629182 61.03145592 -228.44850159 61.08287048 C-227.30021902 61.08158885 -227.30021902 61.08158885 -226.12873882 61.08028132 C-223.58002359 61.0786426 -221.03137512 61.0841214 -218.48266602 61.08959961 C-216.64914451 61.08988185 -214.81562288 61.08972302 -212.98210144 61.0891571 C-208.01572226 61.08887059 -203.04936731 61.09474382 -198.08299375 61.10173106 C-192.88865867 61.1079888 -187.69432301 61.10857032 -182.49998474 61.10975647 C-172.66873999 61.11286264 -162.83750638 61.12106642 -153.00626653 61.13110596 C-141.81163914 61.14228925 -130.61701121 61.14778313 -119.42237961 61.15280139 C-96.39876774 61.16324962 -73.37516574 61.18083525 -50.3515625 61.203125 C-50.36135132 59.46131958 -50.36135132 59.46131958 -50.37133789 57.68432617 C-50.3766164 56.14241588 -50.38173489 54.60050503 -50.38671875 53.05859375 C-50.39143188 52.29542847 -50.39614502 51.53226318 -50.40100098 50.74597168 C-50.43505663 36.68098604 -46.28417749 23.33438587 -36.36328125 12.9453125 C-25.46286828 3.50534321 -14.15991469 0.07079035 0 0 Z M-21.3515625 29.203125 C-29.9514184 38.94087532 -28.3515625 47.44164963 -28.3515625 61.203125 C-1.9515625 61.203125 24.4484375 61.203125 51.6484375 61.203125 C52.7165418 46.00233992 52.7165418 46.00233992 47.6484375 33.203125 C46.99488281 32.24212891 46.99488281 32.24212891 46.328125 31.26171875 C42.16698298 25.81585255 37.19720379 22.79485612 30.44042969 21.66821289 C24.90740517 20.98958736 19.42099328 21.01714423 13.85229492 21.01782227 C11.85135803 21.0156418 9.85046076 20.99714188 7.84960938 20.97851562 C-3.40208609 20.96164652 -12.94828511 21.02443409 -21.3515625 29.203125 Z M-206.3515625 135.203125 C-210.15825588 141.33350715 -212.46746276 146.98242864 -212.49200439 154.21720886 C-212.49771454 155.22781372 -212.50342468 156.23841858 -212.50930786 157.27964783 C-212.51042572 158.38256668 -212.51154358 159.48548553 -212.51269531 160.62182617 C-212.51766022 161.78813568 -212.52262512 162.95444519 -212.52774048 164.15609741 C-212.5423601 168.01943551 -212.54916429 171.88273252 -212.5546875 175.74609375 C-212.55742419 177.07946612 -212.56028065 178.41283824 -212.56325531 179.7462101 C-212.57692503 186.01302125 -212.5865934 192.27981937 -212.5904572 198.54664439 C-212.59493227 205.76405151 -212.61245656 212.98126871 -212.6414578 220.19861811 C-212.66313119 225.78775673 -212.67316454 231.37684215 -212.67449832 236.96602231 C-212.67554262 240.29916414 -212.68283257 243.63198582 -212.69931793 246.96510887 C-212.7164209 250.68936815 -212.71448727 254.41316827 -212.70800781 258.13745117 C-212.7172226 259.23024887 -212.72643738 260.32304657 -212.7359314 261.44895935 C-212.68012646 271.71686675 -210.16631812 280.33880832 -203.3515625 288.203125 C-194.03558007 296.14461822 -185.12465323 296.56591707 -173.2890625 296.578125 C-172.03544922 296.60261719 -170.78183594 296.62710938 -169.49023438 296.65234375 C-160.5779196 296.77702136 -160.5779196 296.77702136 -153.3515625 292.203125 C-151.80131786 289.10263572 -152.06164235 286.62418282 -152.3515625 283.203125 C-154.14718655 280.44983479 -155.40411172 278.67685039 -158.3515625 277.203125 C-160.16648385 277.07330517 -161.98565115 277.00061416 -163.8046875 276.95703125 C-165.44630859 276.90772461 -165.44630859 276.90772461 -167.12109375 276.85742188 C-169.4256918 276.79663842 -171.73038347 276.73929869 -174.03515625 276.68554688 C-175.13472656 276.65138672 -176.23429687 276.61722656 -177.3671875 276.58203125 C-178.37040039 276.5569751 -179.37361328 276.53191895 -180.40722656 276.50610352 C-183.67250365 276.17009946 -186.32844814 275.48207301 -189.3515625 274.203125 C-192.14789971 270.00861918 -192.4740079 266.3175617 -192.49200439 261.35903931 C-192.49771454 260.4114827 -192.50342468 259.46392609 -192.50930786 258.48765564 C-192.51042572 257.45999588 -192.51154358 256.43233612 -192.51269531 255.37353516 C-192.51766022 254.2818956 -192.52262512 253.19025604 -192.52774048 252.0655365 C-192.54233416 248.45774707 -192.54915888 244.85000159 -192.5546875 241.2421875 C-192.5604405 238.73261514 -192.56619822 236.2230428 -192.57196045 233.71347046 C-192.58112069 229.12475647 -192.58742473 224.53605506 -192.5904572 219.94733298 C-192.5949377 213.20590452 -192.61249161 206.46467884 -192.6414578 199.72331202 C-192.66572222 193.87191414 -192.67340353 188.02058365 -192.67513275 182.16913986 C-192.67815817 179.68526479 -192.68618295 177.20139055 -192.69931793 174.71754837 C-192.71638765 171.24204411 -192.7144958 167.76703318 -192.70800781 164.29150391 C-192.7172226 163.26789261 -192.72643738 162.24428131 -192.7359314 161.18965149 C-192.70228948 155.43162077 -192.21825327 151.25054126 -189.3515625 146.203125 C-185.87446071 143.88505714 -184.4675517 143.95240203 -180.36328125 143.9296875 C-179.18185547 143.9090625 -178.00042969 143.8884375 -176.78320312 143.8671875 C-174.29889645 143.84126881 -171.81449796 143.82296622 -169.33007812 143.8125 C-160.51714176 143.7398489 -160.51714176 143.7398489 -153.3515625 139.203125 C-151.80131786 136.10263572 -152.06164235 133.62418282 -152.3515625 130.203125 C-154.14718655 127.44983479 -155.40411172 125.67685039 -158.3515625 124.203125 C-162.64831186 123.94355136 -166.94908953 123.93195764 -171.25268555 123.90795898 C-172.68117224 123.89650269 -174.1096183 123.87615258 -175.5378418 123.84643555 C-188.13563029 123.58437812 -197.78204379 125.32670801 -206.3515625 135.203125 Z M176.6484375 128.203125 C175.07908156 131.34183688 175.29642647 133.74168322 175.6484375 137.203125 C177.8211797 139.83328661 179.59517538 141.67649394 182.6484375 143.203125 C184.62198477 143.29779362 186.59842169 143.33497843 188.57421875 143.34375 C189.76337891 143.36308594 190.95253906 143.38242187 192.17773438 143.40234375 C194.6879911 143.43603847 197.19850289 143.4544148 199.70898438 143.45703125 C209.9248488 143.66675726 209.9248488 143.66675726 212.94140625 146.5 C215.36919893 150.34446804 215.77295284 153.42413687 215.78215027 157.92022705 C215.78641525 158.86496384 215.79068024 159.80970062 215.79507446 160.7830658 C215.79462128 161.81274979 215.79416809 162.84243378 215.79370117 163.90332031 C215.79705978 164.99320755 215.8004184 166.08309479 215.80387878 167.20600891 C215.81338903 170.81443416 215.81533206 174.42281299 215.81640625 178.03125 C215.81961921 180.53985615 215.82298331 183.04846212 215.82649231 185.55706787 C215.83248407 190.81946107 215.83437502 196.08184249 215.83374023 201.34423828 C215.83314029 207.41310957 215.84367682 213.48189173 215.8594839 219.55074048 C215.8741764 225.40159793 215.87772715 231.25242034 215.87713051 237.10329437 C215.87830931 239.58633538 215.88272545 242.06937708 215.89046288 244.55240631 C215.90028354 248.03012939 215.89737616 251.50762465 215.89135742 254.98535156 C215.89697693 256.00693863 215.90259644 257.0285257 215.90838623 258.08106995 C215.88327645 263.80414105 215.2873802 268.71308213 213.6484375 274.203125 C206.13754881 276.90877655 198.53583835 276.55733053 190.6328125 276.59375 C184.22652462 276.66345465 184.22652462 276.66345465 178.4375 279.1171875 C176.10150672 281.84081286 175.68439472 282.88550293 175.2734375 286.515625 C175.31788291 290.34518994 175.31788291 290.34518994 178.0234375 293.078125 C183.52138799 297.52884682 189.36973373 296.42552559 196.2109375 296.453125 C197.46197266 296.47375 198.71300781 296.494375 200.00195312 296.515625 C209.94341855 296.55746178 217.90616917 295.3986427 225.79296875 289.0703125 C234.5087392 280.29949508 235.94876131 270.24588214 235.93896484 258.47558594 C235.94568207 257.31205093 235.95239929 256.14851593 235.95932007 254.94972229 C235.97828067 251.11227112 235.98222344 247.27499507 235.984375 243.4375 C235.98917838 241.43796347 235.99398554 239.4384269 235.99929583 237.43889165 C236.01554837 231.1534214 236.02046775 224.86800838 236.01904297 218.58251953 C236.01784301 212.12330112 236.03892268 205.66441762 236.0705303 199.20528388 C236.09678682 193.63897135 236.10740632 188.07276756 236.10613215 182.50639367 C236.10562515 179.1910941 236.1130355 175.87615706 236.13248825 172.56090546 C236.15218862 168.85640566 236.14629304 165.1527571 236.13427734 161.44824219 C236.15113586 159.82690117 236.15113586 159.82690117 236.16833496 158.17280579 C236.08071867 147.48714131 233.24248885 138.84940949 225.80859375 131.08203125 C217.92336406 124.22344991 209.38928755 123.96306535 199.45214844 123.90795898 C198.00315594 123.89643069 196.55420619 123.87596499 195.10546875 123.84643555 C193.00752018 123.80368364 190.91083048 123.78758219 188.8125 123.77734375 C187.55904785 123.76276123 186.3055957 123.74817871 185.01416016 123.7331543 C181.06449349 124.28466368 179.44937732 125.42385026 176.6484375 128.203125 Z M297.6484375 170.203125 C297.6484375 194.293125 297.6484375 218.383125 297.6484375 243.203125 C306.88312671 241.94956264 306.88312671 241.94956264 314.6484375 238.203125 C321.62625337 224.59026316 318.05461872 201.1290365 317.3359375 186.203125 C317.27792969 184.98625 317.21992187 183.769375 317.16015625 182.515625 C316.58685706 178.80449743 315.71434744 176.34075422 313.6484375 173.203125 C307.8330523 170.60069264 307.8330523 170.60069264 297.6484375 170.203125 Z M-290.8515625 174.140625 C-299.74988228 186.37581469 -294.61782728 215.79300982 -293.86328125 230.1796875 C-293.25302334 233.78533345 -292.40914846 236.16635244 -290.3515625 239.203125 C-287.32405006 240.78072626 -287.32405006 240.78072626 -283.8515625 241.578125 C-282.13453125 242.05378906 -282.13453125 242.05378906 -280.3828125 242.5390625 C-277.38033476 243.3101236 -277.38033476 243.3101236 -274.3515625 243.203125 C-274.3515625 219.113125 -274.3515625 195.023125 -274.3515625 170.203125 C-280.33368758 170.203125 -285.99574802 170.37736877 -290.8515625 174.140625 Z " fill="#FFFFFF" transform="translate(988.3515625,394.796875)"/>
<path d="M0 0 C2.11149039 0.00565548 4.2229727 0.00846649 6.33446884 0.0110817 C27.57264216 0.04928834 48.54876332 0.63474455 69.63759995 3.31805801 C71.04259682 3.48697601 72.44771111 3.65491986 73.85293198 3.82196426 C140.36904233 11.8159586 203.8636183 32.32002918 263.63759995 62.31805801 C264.62260483 62.81193008 265.60760971 63.30580215 266.62246323 63.81464005 C301.73562488 81.53959262 334.65122433 103.82841985 364.91836166 128.90301895 C366.44931107 130.16308466 367.99740642 131.40225271 369.5477562 132.63837051 C376.38014176 138.09220406 382.73116078 143.98503929 389.08291245 149.98212051 C391.86710927 152.60814098 394.6999834 155.16644044 397.57509995 157.69305801 C402.13967702 161.77513785 406.4880449 166.05985799 410.82509995 170.38055801 C411.49082016 171.04168594 412.15654037 171.70281387 412.84243393 172.38397598 C416.72737053 176.2809911 420.4237697 180.28847006 424.01870346 184.45404434 C426.29092215 187.07029977 428.65071343 189.59489907 431.01259995 192.13055801 C436.12765221 197.67471071 440.92387532 203.42785006 445.63759995 209.31805801 C446.5600037 210.44889758 447.4832219 211.57907316 448.4071312 212.70868301 C474.85100851 245.18269545 496.92813816 280.91025119 515.63759995 318.31805801 C516.41248764 319.84801407 516.41248764 319.84801407 517.20302963 321.40887833 C556.4848335 399.19038206 573.62490662 485.81014877 545.3290062 753.32928848 C538.87949439 772.8077734 531.15282164 791.65791947 522.63759995 810.31805801 C521.8774559 811.98505753 521.8774559 811.98505753 521.10195541 813.6857338 C514.46747409 828.11481252 507.13229842 842.03416097 499.13222885 855.7506752 C497.76977521 858.09101537 496.42516708 860.44044289 495.0868187 862.79462051 C470.12563639 906.388013 437.55974403 945.40683622 402.20009995 980.88055801 C401.2766478 981.80868301 400.35319565 982.73680801 399.4017601 983.69305801 C394.83920917 988.24487353 390.22582005 992.66635307 385.33364487 996.86273575 C383.17787594 998.71253258 381.0991541 1000.64084072 379.01259995 1002.56805801 C373.89362545 1007.19164788 368.51052109 1011.414448 363.0633812 1015.63837051 C360.11699797 1017.92756487 357.24658382 1020.29520057 354.38759995 1022.69305801 C277.62957445 1085.68834716 179.730939 1124.19326214 39.63759995 1142.31805801 C38.7529808 1142.37590469 37.86836166 1142.43375137 36.95693588 1142.49335098 C-49.79831405 1147.90151214 -138.57179681 1133.07578112 -286.36240005 1065.31805801 C-287.29954849 1064.76827286 -288.23669693 1064.2184877 -289.2022438 1063.65204239 C-315.41527169 1048.23366031 -340.53960633 1030.66541022 -363.54208755 1010.73993301 C-366.18547909 1008.46998461 -368.88405319 1006.29694687 -371.61240005 1004.13055801 C-383.96972205 994.02809218 -395.19407934 982.57658138 -406.48740005 971.31805801 C-406.97849258 970.82964432 -407.46958511 970.34123062 -407.97555923 969.83801651 C-413.66445937 964.17272275 -419.13967556 958.41389311 -424.36240005 952.31805801 C-425.77563556 950.77324541 -427.19180414 949.23110477 -428.61240005 947.69305801 C-433.23598992 942.57408352 -437.45879004 937.19097916 -441.68271255 931.74383926 C-443.97190691 928.79745604 -446.33954261 925.92704189 -448.73740005 923.06805801 C-500.43714967 860.07333646 -536.16484091 781.47032227 -554.36240005 702.31805801 C-554.59219559 701.32249893 -554.59219559 701.32249893 -554.82663345 700.30682755 C-574.54502004 614.44422574 -574.33710988 524.04664455 -507.36240005 312.31805801 C-506.55850845 310.70060684 -506.55850845 310.70060684 -505.73837662 309.05047989 C-485.18642642 267.79481125 -458.51881862 228.4743788 -427.3272438 194.46258926 C-425.53301575 192.50427673 -423.78544769 190.51579664 -422.04990005 188.50555801 C-414.35675888 179.70586914 -406.36060886 171.22306854 -398.11240005 162.94305801 C-397.46343765 162.28950333 -396.81447525 161.63594864 -396.14584732 160.96258926 C-392.30142908 157.13036623 -388.34148422 153.49064278 -384.23300552 149.9435463 C-381.61502157 147.66861323 -379.08781751 145.30704826 -376.54990005 142.94305801 C-371.00574736 137.82800574 -365.25260801 133.03178264 -359.36240005 128.31805801 C-358.23156049 127.39565426 -357.10138491 126.47243606 -355.97177505 125.54852676 C-326.41006631 101.47616426 -294.05194084 81.07594193 -260.36240005 63.31805801 C-259.43508072 62.8283754 -258.50776138 62.33869278 -257.55234146 61.8341713 C-200.32063597 31.84906804 -137.42099272 13.35938131 -73.54990005 4.56805801 C-72.82835739 4.4670076 -72.10681473 4.36595718 -71.36340714 4.26184464 C-47.64016819 0.97543512 -23.9329979 -0.06519407 0 0 Z M-61.36240005 39.31805801 C-62.37194748 39.44887772 -62.37194748 39.44887772 -63.4018898 39.58234024 C-164.9214788 52.7570219 -260.66254319 93.77138057 -339.36240005 159.31805801 C-339.86739029 159.73668106 -340.37238052 160.15530411 -340.89267349 160.5866127 C-354.0072394 171.47372003 -366.3206997 183.10530905 -378.34872818 195.17401505 C-380.25318511 197.08388796 -382.16300825 198.9882795 -384.07333755 200.89227676 C-390.04792921 206.86332879 -395.93472962 212.83751558 -401.36240005 219.31805801 C-402.23882789 220.32819442 -403.11637915 221.33735754 -403.99521255 222.34540176 C-411.4715251 231.07557864 -418.46659825 240.12496572 -425.36240005 249.31805801 C-426.23565933 250.47579727 -426.23565933 250.47579727 -427.12656021 251.6569252 C-477.38637195 318.38613138 -510.7956515 396.78929513 -528.2647438 645.59540176 C-519.94312645 703.40790147 -502.52151382 759.12704805 -476.36240005 811.31805801 C-475.52853775 812.98964981 -475.52853775 812.98964981 -474.67782974 814.69501114 C-466.97498931 830.06589656 -458.73883221 844.90538979 -449.36240005 859.31805801 C-448.90881119 860.01850235 -448.45522232 860.71894669 -447.98788834 861.44061661 C-433.44760569 883.81236817 -417.36759813 905.50721147 -399.3194313 925.18133926 C-397.5672852 927.09436105 -395.8653924 929.03821084 -394.17490005 931.00555801 C-383.98743022 942.68908985 -373.35832971 954.2858326 -361.58115005 964.38055801 C-359.37874545 966.30378457 -357.22986348 968.27837812 -355.08700943 970.2675209 C-349.03998044 975.87562164 -342.80359126 981.16340103 -336.36240005 986.31805801 C-335.23156049 987.24046177 -334.10138491 988.16367997 -332.97177505 989.08758926 C-257.53150946 1050.51023794 -165.48862309 1089.1340113 -32.36240005 1106.31805801 C-31.51371353 1106.37590469 -30.66502701 1106.43375137 -29.79062271 1106.49335098 C40.07948245 1111.03107028 110.48818905 1100.94244936 176.63759995 1078.31805801 C177.69495346 1077.96130997 178.75230698 1077.60456192 179.84170151 1077.23700333 C195.49429813 1071.92881589 210.58171335 1065.63116515 225.59170151 1058.71991348 C228.30712257 1057.47015813 231.02955176 1056.23760967 233.75478745 1055.00946426 C245.53781646 1049.63477071 256.76149899 1043.36341539 267.96035385 1036.86981583 C270.38279564 1035.46574506 272.81172613 1034.07382058 275.2430687 1032.68524551 C301.02874248 1017.85840944 325.5158659 1000.18215895 348.0033226 980.72577286 C349.76202386 979.21088319 351.53265724 977.71081776 353.3055687 976.21258926 C358.75169121 971.59977276 364.12827355 967.01585189 369.0868187 961.87274551 C370.76156952 960.19377617 372.51952721 958.66768511 374.32509995 957.13055801 C382.01684436 950.48632743 389.22015948 943.17039681 395.8055687 935.43133926 C397.68650901 933.26164052 399.62674733 931.15340112 401.58047104 929.04925919 C407.19170241 923.00087597 412.48101673 916.76165621 417.63759995 910.31805801 C418.5600037 909.18721845 419.4832219 908.05704287 420.4071312 906.92743301 C442.48069639 879.81434141 461.42959558 850.27112342 477.63759995 819.31805801 C478.46711166 817.74290421 478.46711166 817.74290421 479.3133812 816.13592911 C518.97216866 740.36571186 538.66537235 654.69082138 515.03603745 413.88837051 C493.87887141 346.37032459 460.10230982 283.62091639 414.63759995 229.31805801 C414.22332748 228.81886856 413.80905502 228.31967911 413.38222885 227.8053627 C402.49106696 214.68435537 390.8557205 202.36511185 378.78164291 190.33172989 C376.87177 188.42727296 374.96737846 186.51744982 373.0633812 184.60712051 C367.09232917 178.63252886 361.11814238 172.74572845 354.63759995 167.31805801 C353.62746354 166.44163018 352.61830042 165.56407892 351.6102562 164.68524551 C342.88007932 157.20893297 333.83069224 150.21385982 324.63759995 143.31805801 C323.86577377 142.73588516 323.0939476 142.15371231 322.29873276 141.55389786 C311.36948392 133.32209022 300.27316221 125.51968029 288.63759995 118.31805801 C287.86867416 117.84158829 287.09974838 117.36511856 286.30752182 116.87421036 C221.99080212 77.23139064 151.33006772 51.17482337 76.45009995 40.56805801 C75.7486586 40.46691696 75.04721725 40.36577591 74.32452011 40.26156998 C50.67076928 36.89170054 27.00907619 35.93629052 3.13759995 36.00555801 C1.16985107 36.00829224 1.16985107 36.00829224 -0.8376503 36.0110817 C-21.18069632 36.05025545 -41.18422084 36.64418421 -61.36240005 39.31805801 Z " fill="#FFFFFF" transform="translate(997.3624000549316,2.6819419860839844)"/>
<path d="M0 0 C3.28576338 3.28576338 4.24608142 6.03865681 4.3125 10.5625 C4.16019236 14.36455007 3.8231356 18.14668538 3.5 21.9375 C2.76117337 30.61611144 2.91730081 39.29820733 3 48 C3.73863281 47.11699219 4.47726562 46.23398438 5.23828125 45.32421875 C23.72102616 23.38037776 45.24348729 3.47380448 75 0 C98.43913889 -1.88930087 121.68374047 2.47014395 140.21875 17.83984375 C149.53606952 26.60170768 154.21299098 37.04561669 158 49 C158.63164063 48.22398438 159.26328125 47.44796875 159.9140625 46.6484375 C170.00384831 34.40230499 180.61799376 22.70341169 194 14 C194.77214844 13.47148438 195.54429687 12.94296875 196.33984375 12.3984375 C201.31492408 9.17001599 206.48034242 6.8591847 212 4.75 C212.96039185 4.38044189 212.96039185 4.38044189 213.94018555 4.00341797 C222.93192586 0.71987267 231.70855173 -0.36864504 241.25 -0.3125 C242.7649707 -0.30404053 242.7649707 -0.30404053 244.31054688 -0.29541016 C265.30651018 0.04421065 284.10761286 7.56573081 299.4375 21.9375 C310.64006155 33.96377932 315.18956439 50.49541231 315.12025452 66.67527771 C315.12153615 67.78680831 315.12153615 67.78680831 315.12284368 68.92079407 C315.12448169 71.38659293 315.11900479 73.85232271 315.11352539 76.31811523 C315.11324313 78.09252419 315.11340201 79.86693327 315.1139679 81.64134216 C315.11425435 86.4465698 315.10838209 91.25177238 315.10139394 96.0569942 C315.09513519 101.08316594 315.0945546 106.10933827 315.09336853 111.13551331 C315.09026265 120.64801453 315.08205928 130.16050424 315.07201904 139.6730004 C315.06083483 150.50487768 315.05534163 161.33675553 315.05032361 172.16863716 C315.03987605 194.44576453 315.02229099 216.72288154 315 239 C315.68031784 239.0657296 316.36063568 239.1314592 317.06156921 239.1991806 C318.40527336 239.33086514 318.40527336 239.33086514 319.77612305 239.46520996 C320.66269089 239.55156456 321.54925873 239.63791916 322.46269226 239.72689056 C325.60959174 240.06561493 328.70098755 240.57872018 331.8125 241.15625 C332.98941406 241.37410156 334.16632813 241.59195312 335.37890625 241.81640625 C336.57386719 242.04199219 337.76882813 242.26757812 339 242.5 C340.22589844 242.72558594 341.45179688 242.95117188 342.71484375 243.18359375 C351.73666226 244.86833113 351.73666226 244.86833113 354 246 C354.02888514 249.14581423 354.04675923 252.29159469 354.0625 255.4375 C354.07087891 256.33533203 354.07925781 257.23316406 354.08789062 258.15820312 C354.09272461 259.43920898 354.09272461 259.43920898 354.09765625 260.74609375 C354.10551147 261.93223267 354.10551147 261.93223267 354.11352539 263.14233398 C354 265 354 265 353 266 C350.85385741 266.01737688 348.70716128 265.96050269 346.5625 265.87890625 C345.07017369 265.82927121 343.5778214 265.78041369 342.08544922 265.73217773 C341.263974 265.70437225 340.44249878 265.67656677 339.59613037 265.6479187 C315.69263332 264.86143829 291.78819488 264.91159755 267.875 264.9375 C266.94230286 264.93842274 266.00960571 264.93934547 265.04864502 264.94029617 C253.365744 264.95210516 241.68287305 264.97184711 230 265 C228.49070617 261.98141234 228.77489927 258.87099046 228.75 255.5625 C228.7190625 254.5405957 228.7190625 254.5405957 228.6875 253.49804688 C228.64846439 248.51612655 228.64846439 248.51612655 230.12109375 246.35400391 C232.79093721 244.43002368 235.13889867 244.25971086 238.390625 243.83203125 C240.29134766 243.57583008 240.29134766 243.57583008 242.23046875 243.31445312 C242.89095215 243.23203369 243.55143555 243.14961426 244.23193359 243.06469727 C246.23083334 242.81489525 248.22660229 242.54690723 250.22265625 242.27539062 C256.20992486 241.48982701 261.95749548 240.96328135 268 241 C268.07030383 219.91068229 268.12309238 198.82138411 268.15543652 177.73197269 C268.1708584 167.93821847 268.19185769 158.14453735 268.22631836 148.35083008 C268.25636479 139.80752253 268.27560893 131.26426798 268.28226548 122.72090906 C268.2861521 118.20372 268.2951868 113.68668246 268.31719017 109.16954231 C268.33779714 104.9038618 268.34378581 100.63839288 268.33932304 96.37266731 C268.34013757 94.82045332 268.34595731 93.26823105 268.35761642 91.71606064 C268.48920105 73.26819199 266.36361833 53.66179679 254 39 C245.99165063 31.407885 236.3111059 28.56096699 225.34375 28.79296875 C204.16968706 30.66334431 187.57690297 43.49345097 174 59 C164.45091212 70.11541256 164.45091212 70.11541256 160.7215271 83.51091003 C160.7128385 84.50705817 160.7128385 84.50705817 160.70397437 85.52333051 C160.68694338 87.75282591 160.68409526 89.98211469 160.68115234 92.21166992 C160.67185629 93.80815643 160.6616881 95.40463806 160.65071106 97.00111389 C160.62336055 101.33963049 160.60824673 105.67811454 160.59528303 110.01669478 C160.57967455 114.54911655 160.55287709 119.08147161 160.5272522 123.61384583 C160.48042391 132.19855135 160.44369943 140.78326936 160.41057932 149.36803752 C160.37238652 159.14063463 160.32296894 168.91316481 160.27259517 178.68570554 C160.16921509 198.79042097 160.07997448 218.89517875 160 239 C160.60963152 239.06591371 161.21926304 239.13182741 161.84736824 239.1997385 C163.05360501 239.33163783 163.05360501 239.33163783 164.28421021 239.46620178 C165.07946672 239.55274049 165.87472324 239.63927919 166.69407845 239.72844028 C172.12800503 240.3683734 177.49671064 241.44569718 182.875 242.4375 C184.09703125 242.65470703 185.3190625 242.87191406 186.578125 243.09570312 C187.74601562 243.31033203 188.91390625 243.52496094 190.1171875 243.74609375 C191.70442627 244.03504517 191.70442627 244.03504517 193.32373047 244.32983398 C196 245 196 245 199 247 C199.24869641 249.91330078 199.32634278 252.59420295 199.25 255.5 C199.24484375 256.28503906 199.2396875 257.07007813 199.234375 257.87890625 C199.15462412 263.69075176 199.15462412 263.69075176 198 266 C197.15711426 265.96970703 196.31422852 265.93941406 195.44580078 265.90820312 C167.75653776 264.97092824 140.07675556 264.91221891 112.375 264.9375 C111.43041176 264.93835602 110.48582352 264.93921204 109.51261139 264.94009399 C97.67505588 264.95160725 85.8375272 264.97185704 74 265 C73.32653374 261.77110715 72.86337327 258.80199219 72.875 255.5 C72.87242187 254.7678125 72.86984375 254.035625 72.8671875 253.28125 C73.01269656 250.78191792 73.45837941 248.44159122 74 246 C101.65171689 240.92318539 101.65171689 240.92318539 112 241 C112.93444004 223.09763959 113.17729084 205.21585088 113.20018864 187.29309893 C113.20316777 185.06963782 113.20727961 182.84618132 113.21169281 180.62272263 C113.22526203 173.61646008 113.23498661 166.61020866 113.2388947 159.60393393 C113.24338734 151.60350919 113.26103578 143.60325425 113.2898953 135.60288107 C113.3116475 129.34993492 113.32160569 123.09703618 113.32293582 116.84405267 C113.32397171 113.13817155 113.3296176 109.43245234 113.34775543 105.72661209 C113.88663146 69.57048157 113.88663146 69.57048157 98 38 C90.5741715 30.8663916 79.69915404 28.60813954 69.66796875 28.79296875 C50.93545939 30.24658953 36.16608225 39.13624544 23.609375 52.5546875 C9.41542441 68.42550314 9.41542441 68.42550314 2.7215271 87.35905457 C2.7157347 88.00681911 2.7099423 88.65458366 2.70397437 89.32197744 C2.68694611 91.49619596 2.68409551 93.67020257 2.68115234 95.84448242 C2.6718561 97.40156069 2.66168788 98.95863396 2.65071106 100.51570129 C2.6233627 104.74678305 2.60824736 108.97783142 2.59528303 113.20897841 C2.57967361 117.62929228 2.55287645 122.04953775 2.5272522 126.46980286 C2.48042558 134.84201194 2.44370029 143.21423384 2.41057932 151.58650714 C2.37238534 161.11727192 2.32296807 170.64796808 2.27259517 180.17867506 C2.16921757 199.78573273 2.07997615 219.39283383 2 239 C2.68031784 239.0657296 3.36063568 239.1314592 4.06156921 239.1991806 C4.95737198 239.28697029 5.85317474 239.37475998 6.77612305 239.46520996 C7.66269089 239.55156456 8.54925873 239.63791916 9.46269226 239.72689056 C12.60959174 240.06561493 15.70098755 240.57872018 18.8125 241.15625 C19.98941406 241.37410156 21.16632813 241.59195312 22.37890625 241.81640625 C23.57386719 242.04199219 24.76882813 242.26757812 26 242.5 C27.22589844 242.72558594 28.45179688 242.95117188 29.71484375 243.18359375 C38.73666226 244.86833113 38.73666226 244.86833113 41 246 C41 252.6 41 259.2 41 266 C38.83566406 265.9278125 36.67132812 265.855625 34.44140625 265.78125 C7.89847757 264.97016013 -18.63483063 264.9129341 -45.1875 264.9375 C-46.11927441 264.93835602 -47.05104881 264.93921204 -48.01105881 264.94009399 C-59.67405837 264.95159464 -71.33702903 264.97182718 -83 265 C-84.50929383 261.98141234 -84.22510073 258.87099046 -84.25 255.5625 C-84.270625 254.88123047 -84.29125 254.19996094 -84.3125 253.49804688 C-84.35153561 248.51612655 -84.35153561 248.51612655 -82.87890625 246.35400391 C-80.20906279 244.43002368 -77.86110133 244.25971086 -74.609375 243.83203125 C-72.70865234 243.57583008 -72.70865234 243.57583008 -70.76953125 243.31445312 C-70.10904785 243.23203369 -69.44856445 243.14961426 -68.76806641 243.06469727 C-66.76916666 242.81489525 -64.77339771 242.54690723 -62.77734375 242.27539062 C-56.73803104 241.48299853 -51.12171922 241 -45 241 C-45 172.36 -45 103.72 -45 33 C-50.28 32.67 -55.56 32.34 -61 32 C-65.01754849 31.5248855 -69.00141082 31.02602475 -73 30.4375 C-73.97710938 30.29892578 -74.95421875 30.16035156 -75.9609375 30.01757812 C-78.30808439 29.68391509 -80.65417284 29.34281849 -83 29 C-83 22.73 -83 16.46 -83 10 C-74.18145938 8.80504466 -65.35852114 7.66021584 -56.52734375 6.5625 C-55.5086319 6.43584961 -54.48992004 6.30919922 -53.44033813 6.17871094 C-49.20701028 5.65298822 -44.97357348 5.12815447 -40.73999023 4.60449219 C-37.60646685 4.21662152 -34.47310726 3.82746409 -31.33984375 3.4375 C-30.34101166 3.31342773 -29.34217957 3.18935547 -28.31307983 3.06152344 C-21.79505265 2.24489008 -15.29730441 1.34714258 -8.80688477 0.33203125 C-5.8077137 -0.02274588 -3.01546167 -0.21601411 0 0 Z " fill="#FFFFFF" transform="translate(713,1445)"/>
<path d="M0 0 C4.32561961 5.24317528 4.18900992 9.23760324 3.56103516 15.87109375 C2.92867222 22.75370075 2.90424212 29.59116411 2.9375 36.5 C2.94168945 37.62905762 2.94587891 38.75811523 2.95019531 39.92138672 C2.96262993 42.61430937 2.97906263 45.30713208 3 48 C3.556875 47.31035156 4.11375 46.62070313 4.6875 45.91015625 C7.10980476 42.92728435 9.55028242 39.96039539 12 37 C12.65742188 36.20207031 13.31484375 35.40414063 13.9921875 34.58203125 C19.08025599 28.61780159 24.78212898 23.75741468 31 19 C31.80308594 18.38125 32.60617187 17.7625 33.43359375 17.125 C53.50177664 2.36219879 76.69605336 -2.53577498 101.21484375 0.42578125 C118.60385308 3.45076366 137.20185572 12.23984183 147.5625 26.9375 C152.13163604 33.52624995 154.71370932 40.33690509 157 48 C159.86491452 45.18944818 162.64068007 42.32660278 165.34765625 39.36328125 C183.22125101 19.82109963 204.86119244 1.63726291 232.51904297 -0.1640625 C254.85218176 -1.12376766 275.18763437 2.82956786 293 17 C293.94746094 17.70382812 293.94746094 17.70382812 294.9140625 18.421875 C308.55806207 29.12069405 312.60423048 45.12565372 314.72548127 61.47427773 C315.4753914 68.37386059 315.38946225 75.29074826 315.34057617 82.22143555 C315.33972681 83.94835393 315.34021104 85.6752734 315.34190369 87.40219116 C315.34275304 92.02291814 315.32530236 96.64340426 315.30418181 101.26407599 C315.28523503 106.11799839 315.28365056 110.97192828 315.28010559 115.82588196 C315.27083738 124.98741233 315.24629552 134.14883336 315.21605712 143.31031591 C315.18234895 153.75310583 315.16598612 164.1959014 315.15097082 174.63873231 C315.11974038 196.09254888 315.06708326 217.54626751 315 239 C315.60963152 239.06609781 316.21926304 239.13219563 316.84736824 239.2002964 C317.65152609 239.28837248 318.45568394 239.37644855 319.28421021 239.4671936 C320.07946672 239.55391642 320.87472324 239.64063923 321.69407845 239.72999001 C327.12566854 240.3659976 332.49564853 241.40324619 337.875 242.375 C339.09703125 242.58382813 340.3190625 242.79265625 341.578125 243.0078125 C342.74601562 243.21921875 343.91390625 243.430625 345.1171875 243.6484375 C346.17534668 243.83583496 347.23350586 244.02323242 348.32373047 244.21630859 C351.14258086 245.04175192 352.31749395 245.61769686 354 248 C354.24523423 250.5924762 354.32866939 252.91866061 354.25 255.5 C354.24484375 256.17675781 354.2396875 256.85351562 354.234375 257.55078125 C354.18595218 260.61957737 353.97638936 263.07083192 353 266 C352.15711426 265.96970703 351.31422852 265.93941406 350.44580078 265.90820312 C322.75653776 264.97092824 295.07675556 264.91221891 267.375 264.9375 C266.43041176 264.93835602 265.48582352 264.93921204 264.51261139 264.94009399 C252.67505588 264.95160725 240.8375272 264.97185704 229 265 C228.18393957 261.92984614 227.86518453 259.24761904 227.875 256.0625 C227.87242187 255.22847656 227.86984375 254.39445312 227.8671875 253.53515625 C228.00325652 250.93783877 228.42878507 248.53419956 229 246 C256.65171689 240.92318539 256.65171689 240.92318539 267 241 C267.80776699 222.03733155 268.17451418 203.11197671 268.20018864 184.13202929 C268.20317999 182.0197652 268.20729305 179.90750582 268.21169281 177.79524422 C268.22523409 171.12911056 268.23497407 164.46298844 268.2388947 157.79684204 C268.24339274 150.20227733 268.26107782 142.60789101 268.2898953 135.01338047 C268.31166663 129.06267085 268.32160655 123.11201102 268.32293582 117.16126209 C268.32396955 113.64040525 268.32956795 110.11971915 268.34775543 106.59890556 C269.22698097 70.98920565 269.22698097 70.98920565 254 40 C253.47664063 39.44828125 252.95328125 38.8965625 252.4140625 38.328125 C244.91309553 31.21453192 235.27406704 28.84856036 225.15820312 28.89697266 C205.51064662 29.834899 189.4379846 41.87493791 176.4375 55.625 C175.78827576 56.42446548 175.13905151 57.22393097 174.47015381 58.04762268 C172.68895978 60.17654147 170.96019832 62.0233981 168.99053955 63.9471283 C156.32625288 77.49562519 158.34812999 94.9229073 158.58134365 112.23428082 C158.62869052 116.70123399 158.60725494 121.16788659 158.59356689 125.63499451 C158.5779481 134.06756681 158.62289005 142.49864933 158.69038892 150.93092149 C158.76431415 160.54180419 158.76951465 170.15235602 158.76935911 179.7634784 C158.77055759 199.50955123 158.85670671 219.25447993 159 239 C159.68031784 239.0657296 160.36063568 239.1314592 161.06156921 239.1991806 C161.95737198 239.28697029 162.85317474 239.37475998 163.77612305 239.46520996 C164.66269089 239.55156456 165.54925873 239.63791916 166.46269226 239.72689056 C169.60959174 240.06561493 172.70098755 240.57872018 175.8125 241.15625 C176.98941406 241.37410156 178.16632813 241.59195312 179.37890625 241.81640625 C180.57386719 242.04199219 181.76882813 242.26757812 183 242.5 C184.22589844 242.72558594 185.45179688 242.95117188 186.71484375 243.18359375 C195.73666226 244.86833113 195.73666226 244.86833113 198 246 C199.03916442 248.95964549 199.13471044 251.75794931 199.125 254.875 C199.12757813 255.69742187 199.13015625 256.51984375 199.1328125 257.3671875 C198.98477054 260.30190165 198.50170337 263.10686051 198 266 C197.15711426 265.96970703 196.31422852 265.93941406 195.44580078 265.90820312 C167.75653776 264.97092824 140.07675556 264.91221891 112.375 264.9375 C111.43041176 264.93835602 110.48582352 264.93921204 109.51261139 264.94009399 C97.67505588 264.95160725 85.8375272 264.97185704 74 265 C72.87949849 261.63849548 72.86703348 259.03713274 72.875 255.5 C72.87242187 254.3553125 72.86984375 253.210625 72.8671875 252.03125 C73 249 73 249 74 246 C101.88331722 240.9364436 101.88331722 240.9364436 112 241 C112.95836993 210.39653645 113.18800036 179.80701983 113.18530273 149.18969727 C113.18519975 142.77486343 113.19904528 136.36013689 113.21607494 129.94532871 C113.22724539 124.91690076 113.22922068 119.88849882 113.22869301 114.86005974 C113.22985804 112.4941361 113.23419461 110.12821145 113.24202538 107.76230049 C113.74120162 70.21380974 113.74120162 70.21380974 97.01171875 37.7890625 C89.62583039 31.22064139 79.38654823 28.46464429 69.63671875 28.75390625 C49.86354881 30.59940211 35.08197509 39.32932205 22 54 C18.50567682 58.22159695 15.16842112 62.52813008 12 67 C11.27347512 67.95055834 10.54695024 68.90111668 9.79840946 69.88047981 C3.31410162 78.73748658 1.70420383 86.17135703 1.88647461 97.09326172 C1.87913013 98.65197998 1.86783285 100.21068377 1.85293579 101.76934814 C1.82391221 105.95503809 1.84940493 110.13874533 1.88552547 114.32431173 C1.9138699 118.71524073 1.89092155 123.10591276 1.87367249 127.49685669 C1.84875121 135.79109163 1.86921754 144.08455306 1.90644604 152.37871659 C1.94662423 161.82996365 1.93551219 171.28093977 1.92032993 180.73223472 C1.8902664 200.15506366 1.92383938 219.57731144 2 239 C2.60963152 239.06609781 3.21926304 239.13219563 3.84736824 239.2002964 C4.65152609 239.28837248 5.45568394 239.37644855 6.28421021 239.4671936 C7.07946672 239.55391642 7.87472324 239.64063923 8.69407845 239.72999001 C14.12566854 240.3659976 19.49564853 241.40324619 24.875 242.375 C26.09703125 242.58382813 27.3190625 242.79265625 28.578125 243.0078125 C29.74601562 243.21921875 30.91390625 243.430625 32.1171875 243.6484375 C33.17534668 243.83583496 34.23350586 244.02323242 35.32373047 244.21630859 C38.14258086 245.04175192 39.31749395 245.61769686 41 248 C41.24523423 250.5924762 41.32866939 252.91866061 41.25 255.5 C41.24484375 256.17675781 41.2396875 256.85351562 41.234375 257.55078125 C41.18595218 260.61957737 40.97638936 263.07083192 40 266 C39.15711426 265.96970703 38.31422852 265.93941406 37.44580078 265.90820312 C9.75653776 264.97092824 -17.92324444 264.91221891 -45.625 264.9375 C-46.56958824 264.93835602 -47.51417648 264.93921204 -48.48738861 264.94009399 C-60.32494412 264.95160725 -72.1624728 264.97185704 -84 265 C-84.81606043 261.92984614 -85.13481547 259.24761904 -85.125 256.0625 C-85.12757813 255.22847656 -85.13015625 254.39445312 -85.1328125 253.53515625 C-84.99674348 250.93783877 -84.57121493 248.53419956 -84 246 C-56.34828311 240.92318539 -56.34828311 240.92318539 -46 241 C-44.93721906 218.6005476 -44.86497419 196.23353306 -44.89860606 173.8137331 C-44.90496104 168.84373939 -44.90545281 163.87374471 -44.90663147 158.90374756 C-44.90970966 149.54069254 -44.91787445 140.17764954 -44.92798096 130.81459975 C-44.93925277 120.13459059 -44.94468011 109.45458078 -44.94967639 98.77456713 C-44.96006102 76.84970477 -44.9775906 54.92485315 -45 33 C-46.08104004 32.93655899 -47.16208008 32.87311798 -48.27587891 32.80775452 C-49.71777922 32.72097212 -51.15967343 32.63408827 -52.6015625 32.54711914 C-53.31127197 32.50574074 -54.02098145 32.46436234 -54.75219727 32.42173004 C-60.88029477 32.04873358 -66.92606977 31.33147987 -73 30.4375 C-73.97710937 30.29892578 -74.95421875 30.16035156 -75.9609375 30.01757812 C-78.30814455 29.68390653 -80.65440225 29.34476914 -83 29 C-84.0690003 25.79299911 -84.13332529 23.43007931 -84.125 20.0625 C-84.12757813 19.02222656 -84.13015625 17.98195313 -84.1328125 16.91015625 C-83.92163582 12.28290252 -83.92163582 12.28290252 -83 10 C-79.56267277 8.85422426 -76.24228365 8.54253397 -72.66015625 8.203125 C-71.12301535 8.05012108 -69.58590742 7.89678561 -68.04882812 7.74316406 C-66.82981812 7.62285828 -66.82981812 7.62285828 -65.58618164 7.50012207 C-49.4649664 5.90234854 -33.43023158 3.93171355 -17.40258789 1.57519531 C-16.67914688 1.47013672 -15.95570587 1.36507813 -15.21034241 1.25683594 C-13.267229 0.97383935 -11.32498259 0.68490737 -9.3828125 0.39550781 C-6.21634644 0.02529455 -3.18403797 -0.07424553 0 0 Z " fill="#FFFFFF" transform="translate(257,1445)"/>
<path d="M0 0 C0.62132812 0.42667969 1.24265625 0.85335938 1.8828125 1.29296875 C14.73713956 11.12105289 20.4425095 28.87578401 22.65656376 44.34075451 C23.96253679 54.45297467 24.16762516 64.49177717 24.20532227 74.6706543 C24.21491994 76.32743056 24.22493108 77.98420447 24.23532104 79.64097595 C24.26217168 84.10710911 24.28328764 88.57325261 24.30332303 93.03942084 C24.32530615 97.71858554 24.35263409 102.39771906 24.37937927 107.07685852 C24.42914052 115.92338369 24.47414027 124.76992633 24.51740164 133.61648542 C24.56691631 143.69395754 24.62178132 153.77139834 24.67708123 163.84884012 C24.79064667 184.5658642 24.89754034 205.28291821 25 226 C25.76030518 226.08040527 26.52061035 226.16081055 27.30395508 226.24365234 C30.80726515 226.61656562 34.3098709 226.99574604 37.8125 227.375 C39.00810547 227.50132812 40.20371094 227.62765625 41.43554688 227.7578125 C48.69246217 228.54875695 55.84032989 229.57228132 63 231 C64.0690003 234.20700089 64.13332529 236.56992069 64.125 239.9375 C64.12757813 240.97777344 64.13015625 242.01804687 64.1328125 243.08984375 C64.01846071 245.59549327 63.64878146 247.60105484 63 250 C61.7123877 250.10546143 60.42477539 250.21092285 59.09814453 250.31958008 C24.49531336 253.12496293 24.49531336 253.12496293 -10 257 C-14.01770408 251.29745227 -15.0452276 247.68245824 -15.5 240.80859375 C-15.5825 239.61685547 -15.665 238.42511719 -15.75 237.19726562 C-15.91692526 234.68686614 -16.08359113 232.17644939 -16.25 229.66601562 C-16.3325 228.47556641 -16.415 227.28511719 -16.5 226.05859375 C-16.5721875 224.96861084 -16.644375 223.87862793 -16.71875 222.75561523 C-16.90752643 219.91364214 -16.90752643 219.91364214 -18 217 C-18.41137207 217.43231934 -18.82274414 217.86463867 -19.24658203 218.31005859 C-28.2068331 227.66280195 -37.10789183 235.97196482 -48 243 C-48.84691406 243.56976562 -49.69382812 244.13953125 -50.56640625 244.7265625 C-71.716388 258.31551288 -99.30456456 262.8742849 -123.85229492 257.91772461 C-137.59431702 254.55110891 -150.42561966 247.2238432 -158.20068359 235.1328125 C-165.38672006 222.83299195 -168.57423061 210.52659851 -168.4375 196.25 C-168.42847656 195.11328857 -168.41945313 193.97657715 -168.41015625 192.80541992 C-168.0136677 173.43943226 -161.71407221 156.49918461 -147.90234375 142.7109375 C-138.59783857 134.02005379 -128.50070148 128.19906343 -117 123 C-115.82953125 122.46503906 -114.6590625 121.93007812 -113.453125 121.37890625 C-88.26757204 110.60508637 -59.12351184 105.6858748 -31.8125 105.9375 C-30.86052734 105.94201172 -29.90855469 105.94652344 -28.92773438 105.95117188 C-26.61841902 105.96277647 -24.30924663 105.97909748 -22 106 C-20.09078117 57.27078616 -20.09078117 57.27078616 -38.52734375 14.40625 C-45.81416116 7.66470464 -54.60298481 5.63697704 -64.3828125 5.78515625 C-76.88066772 6.81109959 -88.16481425 10.9406918 -96.83203125 20.16015625 C-107.19136685 33.72995261 -110.99464846 50.53886999 -114 67 C-121.64087567 69.30460882 -128.86059357 70.33783839 -136.8125 70.4375 C-137.59987549 70.45941406 -138.38725098 70.48132812 -139.19848633 70.50390625 C-146.39848866 70.47967147 -151.35928486 68.03555125 -157 63.6875 C-160.86988352 58.49267331 -159.64589503 51.05227566 -159 45 C-158.05599103 40.4808081 -156.69572761 36.28985397 -155 32 C-154.67257812 31.13890625 -154.34515625 30.2778125 -154.0078125 29.390625 C-146.24072855 11.58869537 -127.46613597 0.07338603 -110.12988281 -6.734375 C-77.99835244 -18.60441187 -29.04664059 -20.5880035 0 0 Z M-46.9375 125.625 C-48.10756592 125.8017627 -49.27763184 125.97852539 -50.4831543 126.16064453 C-73.31529186 129.81241907 -97.81424735 136.19521201 -113.28125 154.578125 C-120.33518137 164.51775556 -122.38024183 175.26395592 -122.3125 187.1875 C-122.30758545 188.20400635 -122.3026709 189.2205127 -122.29760742 190.26782227 C-122.1117909 202.21248938 -120.65349269 212.93244875 -112.1796875 221.93359375 C-103.92556147 229.71836752 -94.57656882 231.42048427 -83.4609375 231.26953125 C-65.37071942 229.86069937 -49.0637301 221.02799608 -35 210 C-34.43685404 209.56116297 -33.87370808 209.12232594 -33.29349709 208.67019081 C-27.24338849 203.79250196 -21.55941934 199.0258047 -20.62213421 190.95107555 C-20.44973922 187.20614041 -20.56290335 183.50464004 -20.73046875 179.76171875 C-20.75478009 178.14369677 -20.77325451 176.52557768 -20.78620911 174.90742493 C-20.83535428 170.69127213 -20.9625589 166.48114067 -21.10736084 162.26733398 C-21.24145652 157.95053568 -21.29995186 153.63274314 -21.36523438 149.31445312 C-21.50377737 140.87356822 -21.72498649 132.43753722 -22 124 C-30.48448103 123.91754006 -38.54484488 124.3509564 -46.9375 125.625 Z " fill="#FFFFFF" transform="translate(1934,1459)"/>
<path d="M0 0 C1.77334717 0.00737183 1.77334717 0.00737183 3.58251953 0.01489258 C26.13533037 0.31598789 46.69855387 6.89665026 63.2890625 22.7265625 C88.69078097 49.41852699 94.50801396 91.06485071 93.75 126.3125 C86.35920073 131.04837615 79.55146243 130.85793251 70.98046875 130.76660156 C69.49162324 130.76547183 68.0027755 130.76610941 66.51393127 130.76837158 C62.4916084 130.76951475 58.46976697 130.74607037 54.44755554 130.71807575 C50.23687205 130.69299548 46.02617635 130.69071489 41.81542969 130.68597412 C33.85053913 130.67356375 25.88586935 130.64076854 17.92107582 130.60057616 C8.84975193 130.55579795 -0.22158275 130.53385623 -9.29298973 130.51379442 C-27.94545144 130.47203407 -46.59770794 130.40171991 -65.25 130.3125 C-65.13645692 134.7949478 -65.01663535 139.27717454 -64.89141846 143.75930786 C-64.84980632 145.27867263 -64.80980153 146.79808243 -64.77154541 148.3175354 C-64.06642084 176.1745497 -61.04421302 208.78515312 -41.25 230.3125 C-40.73179688 230.9209375 -40.21359375 231.529375 -39.6796875 232.15625 C-30.10143001 242.70621477 -15.32187415 248.45447933 -1.27148438 249.453125 C26.1871677 250.69111653 47.82992041 240.73729863 69.21875 224.1328125 C71.75 222.3125 71.75 222.3125 74.75 221.3125 C79.37382988 224.11113387 82.59673569 228.39206197 84.75 233.3125 C85.14453125 235.7734375 85.14453125 235.7734375 84.75 238.3125 C70.5279204 257.81051235 43.19048775 269.27048149 20.15429688 272.91992188 C13.65927734 273.66891724 7.15340396 273.65891355 0.625 273.625 C-0.10266571 273.62317719 -0.83033142 273.62135437 -1.58004761 273.61947632 C-12.71740847 273.57252582 -23.41364622 273.04084085 -34.25 270.3125 C-34.91660645 270.14621094 -35.58321289 269.97992187 -36.27001953 269.80859375 C-59.73561543 263.76162559 -80.18219419 250.74505336 -93.375 230.125 C-116.2751493 191.14022202 -121.6226352 137.39796966 -110.84863281 93.61425781 C-110.55230957 92.4748877 -110.55230957 92.4748877 -110.25 91.3125 C-110.06276367 90.5709668 -109.87552734 89.82943359 -109.68261719 89.06542969 C-103.88848813 66.85960521 -93.18630921 48.64597579 -77.25 32.3125 C-76.66992188 31.67054687 -76.08984375 31.02859375 -75.4921875 30.3671875 C-56.50949753 9.8582511 -27.30480963 -0.13501733 0 0 Z M-35.9375 35.9375 C-51.33157608 54.130499 -63.34310594 81.77071265 -63.26416016 105.97167969 C-63.26211578 106.78401062 -63.26007141 107.59634155 -63.25796509 108.43328857 C-63.25533661 109.05342834 -63.25270813 109.67356812 -63.25 110.3125 C-53.44276885 110.35930648 -43.63556525 110.39461021 -33.82824421 110.41612434 C-29.27192997 110.42646174 -24.71569339 110.44043166 -20.15942383 110.46337891 C12.52104433 110.98183893 12.52104433 110.98183893 44.75 106.3125 C43.99724452 80.22562916 41.9960192 49.09697554 22.7890625 29.1484375 C14.37559334 21.57309171 5.72355838 19.81663337 -5.46875 20.00390625 C-17.25146357 20.96551201 -27.91522309 27.46113195 -35.9375 35.9375 Z " fill="#FFFFFF" transform="translate(1208.25,1444.6875)"/>
<path d="M0 0 C1.21044479 0.07105453 2.42088959 0.14210907 3.66801453 0.21531677 C18.23003979 1.01795752 32.75095868 1.13077196 47.33203125 1.09765625 C49.79066438 1.09578565 52.24929788 1.09436479 54.70793152 1.09336853 C61.10441155 1.08959387 67.500868 1.07980823 73.89733887 1.06866455 C80.45434246 1.05834033 87.01134995 1.05384759 93.56835938 1.04882812 C106.37891617 1.03818018 119.18945682 1.02136517 132 1 C133.48619895 3.97239791 133.13177009 6.69619578 133.125 10 C133.12757813 11.258125 133.13015625 12.51625 133.1328125 13.8125 C133 17 133 17 132 19 C129.93725586 19.5625 129.93725586 19.5625 127.21484375 20 C126.20744141 20.165 125.20003906 20.33 124.16210938 20.5 C122.56592773 20.7475 122.56592773 20.7475 120.9375 21 C119.93138672 21.165 118.92527344 21.33 117.88867188 21.5 C109.2746108 22.88430611 100.66899245 23.91637594 92 25 C91.67 135.22 91.34 245.44 91 359 C102.88 360.32 114.76 361.64 127 363 C130 366 130 366 130.328125 369.28515625 C130.30234375 370.53167969 130.2765625 371.77820312 130.25 373.0625 C130.23453125 374.31160156 130.2190625 375.56070312 130.203125 376.84765625 C130 380 130 380 129 382 C85.44 382 41.88 382 -3 382 C-3.82822796 378.68708814 -4.13519309 376.3433343 -4.125 373 C-4.12757812 372.154375 -4.13015625 371.30875 -4.1328125 370.4375 C-4.00833711 368.15301056 -3.63877457 366.19008426 -3 364 C8.51334582 361.61267388 20.05186156 360.02014234 31.72399902 358.62887573 C32.71259666 358.51101149 33.70119431 358.39314724 34.71974945 358.27171135 C35.47223213 358.1820466 36.22471481 358.09238186 37 358 C37.8130247 338.95406082 38.1641406 319.94248151 38.20060861 300.88000774 C38.20880284 297.14493941 38.22243119 293.40988975 38.23532104 289.67483521 C38.2568216 283.23976495 38.2750589 276.80469254 38.29092598 270.36960602 C38.31387062 261.06613948 38.34197578 251.76269383 38.37124526 242.45924529 C38.41862459 227.35630307 38.46196672 212.25335217 38.50268555 197.15039062 C38.54219306 182.49999317 38.58365444 167.84960334 38.62768555 153.19921875 C38.63040982 152.29255436 38.63313409 151.38588997 38.63594092 150.4517509 C38.64962289 145.90220277 38.66334267 141.35265475 38.67708123 136.80310678 C38.79057868 99.20208715 38.89748868 61.60105112 39 24 C37.99622314 23.88406494 36.99244629 23.76812988 35.95825195 23.64868164 C32.22135476 23.21651999 28.48477833 22.78163736 24.74829102 22.34594727 C23.13346795 22.15803411 21.51855972 21.97085127 19.90356445 21.78442383 C17.57740677 21.51577303 15.25157166 21.24446608 12.92578125 20.97265625 C12.20787918 20.89032242 11.48997711 20.80798859 10.75032043 20.72315979 C7.12686489 20.29703655 3.56467476 19.78100717 0 19 C-0.20049066 17.52253806 -0.38449872 16.04283977 -0.5625 14.5625 C-0.66691406 13.73878906 -0.77132813 12.91507813 -0.87890625 12.06640625 C-0.98550787 9.36697822 -0.8224042 6.98074408 -0.50756836 4.30834961 C-0.36671059 3.09688515 -0.36671059 3.09688515 -0.2230072 1.86094666 C-0.11261864 0.93977806 -0.11261864 0.93977806 0 0 Z " fill="#FFFFFF" transform="translate(6,1328)"/>
<path d="M0 0 C1.89673462 0.00845947 1.89673462 0.00845947 3.83178711 0.01708984 C23.38375618 0.26869829 58.08209482 3.58209482 72.8125 18.3125 C72.90646057 20.24556498 72.92993517 22.18208838 72.92602539 24.11743164 C72.92594986 25.35864273 72.92587433 26.59985382 72.92579651 27.87867737 C72.92068911 29.2433374 72.9154731 30.60799702 72.91015625 31.97265625 C72.908292 33.36128183 72.90686813 34.74990807 72.90586853 36.13853455 C72.90204387 39.79971115 72.89221403 43.4608483 72.88116455 47.12200928 C72.87094932 50.85542263 72.86637067 54.58884234 72.86132812 58.32226562 C72.8505917 65.65236385 72.83299534 72.98242138 72.8125 80.3125 C65.2225 80.3125 57.6325 80.3125 49.8125 80.3125 C48.52593518 76.45280555 47.54972166 73.45930531 46.94970703 69.57983398 C46.80840363 68.69549179 46.66710022 67.8111496 46.52151489 66.90000916 C46.29816971 65.49350853 46.29816971 65.49350853 46.0703125 64.05859375 C45.54496106 61.00743212 45.01025055 57.95798933 44.47558594 54.90844727 C44.11705787 52.8039656 43.77619532 50.69639751 43.453125 48.58618164 C42.13732991 36.63338857 42.13732991 36.63338857 36.10107422 26.87646484 C32.96636313 25.53640176 30.17364924 24.8356797 26.8125 24.3125 C25.36790277 23.8846805 23.92698096 23.44400354 22.4921875 22.984375 C15.29109952 21.23955286 8.24422785 19.59690889 0.8125 19.3125 C-0.05503906 19.27253906 -0.92257812 19.23257812 -1.81640625 19.19140625 C-14.11277577 18.8940545 -25.28523987 20.76068207 -35.0625 28.625 C-41.44531012 36.6973775 -43.09603788 45.16502767 -42.1875 55.3125 C-38.36579832 73.50379997 -27.40687476 85.45910241 -12.33984375 95.6796875 C-2.39795084 102.14424592 8.29848303 107.45929235 18.81640625 112.91015625 C45.87982031 126.94528526 76.88378153 143.55067633 87.0703125 174.42578125 C91.95483249 193.4239932 90.45674915 212.78652032 81.24609375 230.2890625 C68.5841262 251.14752412 48.13525925 264.24103555 24.8125 270.3125 C13.44079114 272.8160915 2.44138254 273.84946289 -9.1875 273.75 C-9.93908386 273.74729095 -10.69066772 273.74458191 -11.46502686 273.74179077 C-32.67374147 273.62682095 -72.81144657 271.68855343 -89.1875 255.3125 C-89.28141296 253.41006238 -89.30493658 251.50411541 -89.30102539 249.59936523 C-89.30094986 248.3781749 -89.30087433 247.15698456 -89.30079651 245.89878845 C-89.29568911 244.55622314 -89.29047311 243.21365825 -89.28515625 241.87109375 C-89.28329199 240.50488842 -89.28186813 239.13868243 -89.28086853 237.7724762 C-89.27704394 234.17048305 -89.26721417 230.56853 -89.25616455 226.96655273 C-89.24594916 223.29346255 -89.24137064 219.62036591 -89.23632812 215.94726562 C-89.22559184 208.73565666 -89.20799553 201.52408905 -89.1875 194.3125 C-81.2675 194.3125 -73.3475 194.3125 -65.1875 194.3125 C-64.24536854 198.34688761 -63.3033447 202.38130008 -62.36157227 206.41577148 C-62.04262111 207.78199626 -61.72361275 209.14820768 -61.40454102 210.5144043 C-61.25106201 211.17158447 -61.09758301 211.82876465 -60.93945312 212.50585938 C-60.78606476 213.16256622 -60.63267639 213.81927307 -60.47463989 214.49588013 C-60.16581272 215.81985269 -59.85760631 217.1439702 -59.55001831 218.4682312 C-58.80658821 221.66852692 -58.05455469 224.86628248 -57.28759766 228.06103516 C-56.87646729 229.78845947 -56.87646729 229.78845947 -56.45703125 231.55078125 C-56.21186768 232.56825439 -55.9667041 233.58572754 -55.71411133 234.6340332 C-55.1875 237.3125 -55.1875 237.3125 -55.1875 241.3125 C-51.86257921 242.34813107 -48.53088186 243.33862501 -45.1875 244.3125 C-44.5275 244.51069336 -43.8675 244.70888672 -43.1875 244.91308594 C-21.70041314 251.30666205 4.8902754 255.97843059 25.6875 244.9375 C35.56867623 238.90197074 41.40194559 231.04658292 44.34375 219.8046875 C46.49224651 208.38184771 43.70940875 197.18984977 37.390625 187.54296875 C36.60945313 186.43888672 36.60945313 186.43888672 35.8125 185.3125 C35.39484375 184.71050781 34.9771875 184.10851563 34.546875 183.48828125 C23.49231831 169.20392938 4.54044441 160.8837655 -11.02734375 152.70703125 C-70.13193257 121.65633571 -70.13193257 121.65633571 -81.1875 90.3125 C-86.71292854 71.35693733 -85.62734665 50.95002186 -76.2109375 33.5078125 C-73.06449346 28.53910357 -69.39244739 24.40338915 -65.1875 20.3125 C-64.67058594 19.76335937 -64.15367188 19.21421875 -63.62109375 18.6484375 C-47.59701745 3.00090607 -21.13943365 -0.10004465 0 0 Z " fill="#FFFFFF" transform="translate(1638.1875,1444.6875)"/>
<path d="M0 0 C3.50086678 3.40624875 4.8515036 6.34330695 5.12025452 11.15142822 C5.11803391 11.92420105 5.11581329 12.69697388 5.11352539 13.49316406 C5.11341209 14.81408051 5.11341209 14.81408051 5.11329651 16.16168213 C5.10813522 17.10348328 5.10297394 18.04528442 5.09765625 19.015625 C5.0962413 19.98659119 5.09482635 20.95755737 5.09336853 21.95794678 C5.08777663 25.05532935 5.07522559 28.15263932 5.0625 31.25 C5.05748395 33.35156146 5.05292123 35.45312404 5.04882812 37.5546875 C5.03780985 42.70315292 5.02055074 47.85156416 5 53 C5.65806641 52.06188477 6.31613281 51.12376953 6.99414062 50.15722656 C7.88132211 48.90155964 8.76870259 47.6460333 9.65625 46.390625 C10.08711914 45.77525879 10.51798828 45.15989258 10.96191406 44.52587891 C15.45745745 38.18365319 20.6077245 32.58680203 26 27 C26.80050781 26.13632813 27.60101562 25.27265625 28.42578125 24.3828125 C40.26598714 11.94187603 55.90024472 0.41152483 73.6640625 -0.30078125 C75.31759785 -0.32029102 76.9713876 -0.32371745 78.625 -0.3125 C79.49439209 -0.30686035 80.36378418 -0.3012207 81.25952148 -0.29541016 C96.571886 -0.01051584 96.571886 -0.01051584 103 3 C109.7363617 13.44645292 107.16693829 26.42630193 105.046875 37.9453125 C103.93887011 42.83693051 101.95942254 47.39782688 100 52 C99.44352783 51.87882812 98.88705566 51.75765625 98.3137207 51.6328125 C73.60787915 46.3789376 50.25688947 44.83129358 28 59 C23.90060833 61.82342208 20.24907465 64.99271217 16.65574646 68.42724609 C15.61179782 69.4188679 14.55437611 70.39667039 13.47889709 71.35400391 C6.66009772 77.56868514 3.44230389 83.54559492 2.83157349 92.82054138 C2.66794805 98.94817134 2.75885236 105.05980511 2.875 111.1875 C2.89260912 113.92319609 2.89232858 116.6587864 2.89086914 119.39453125 C2.89236858 123.86956355 2.90057247 128.34426288 2.93403625 132.81918335 C3.03092841 146.03428237 2.91935154 159.24280626 2.75390625 172.45703125 C2.74102066 173.49487448 2.72813507 174.5327177 2.71485901 175.60201073 C2.66265082 179.78333205 2.60980004 183.96464417 2.55572128 188.14594173 C2.42494076 198.28742412 2.31640989 208.42909796 2.21211052 218.5708828 C2.18403563 221.3007828 2.15562108 224.03067906 2.12709045 226.76057434 C2.08447494 230.84038032 2.04213949 234.92018908 2 239 C2.83103241 239.05877319 3.66206482 239.11754639 4.51828003 239.17810059 C11.1295231 239.66306618 17.6913471 240.25060532 24.2578125 241.15625 C25.05355682 241.2634436 25.84930115 241.37063721 26.66915894 241.4810791 C28.32102512 241.70449715 29.97264888 241.92971499 31.62402344 242.15673828 C34.15493589 242.50410873 36.68675556 242.84420911 39.21875 243.18359375 C40.8359952 243.40322137 42.45318492 243.62325803 44.0703125 243.84375 C44.82337677 243.94482056 45.57644104 244.04589111 46.35232544 244.15002441 C49.35967931 244.56674541 52.11193484 245.03731161 55 246 C56.1151293 249.3453879 56.13299072 251.91758812 56.125 255.4375 C56.12757813 256.57058594 56.13015625 257.70367188 56.1328125 258.87109375 C56.02213979 261.47841263 55.67775709 263.51275935 55 266 C54.08831055 265.96970703 53.17662109 265.93941406 52.23730469 265.90820312 C21.53574951 264.92886949 -9.16127641 264.91253964 -39.875 264.9375 C-41.46611351 264.93878403 -41.46611351 264.93878403 -43.08937073 264.94009399 C-56.39293015 264.95161546 -69.69646573 264.97187643 -83 265 C-85.05159344 259.20343441 -85.36842362 254.78949312 -84.5625 248.6875 C-83 246 -83 246 -81.27197266 245.35717773 C-80.5557373 245.21739502 -79.83950195 245.0776123 -79.1015625 244.93359375 C-77.88786987 244.69588257 -77.88786987 244.69588257 -76.6496582 244.45336914 C-72.04864645 243.66611411 -67.43917706 242.99231021 -62.8125 242.375 C-61.37487305 242.17390625 -61.37487305 242.17390625 -59.90820312 241.96875 C-58.97556641 241.84242188 -58.04292969 241.71609375 -57.08203125 241.5859375 C-56.24905518 241.4729834 -55.4160791 241.3600293 -54.55786133 241.24365234 C-51.69302598 240.9707588 -48.87634813 240.98457755 -46 241 C-44.78401596 219.80770154 -44.86767792 198.63014772 -44.89860606 177.41159248 C-44.90493989 172.31878929 -44.90545121 167.22598524 -44.90663147 162.13317871 C-44.90971565 152.52916208 -44.91788897 142.92515709 -44.92798096 133.32114553 C-44.93923358 122.3703757 -44.9446754 111.41960526 -44.94967639 100.46883106 C-44.96007468 77.9792143 -44.97761652 55.48960781 -45 33 C-46.08104004 32.93655899 -47.16208008 32.87311798 -48.27587891 32.80775452 C-49.71777922 32.72097212 -51.15967343 32.63408827 -52.6015625 32.54711914 C-53.31127197 32.50574074 -54.02098145 32.46436234 -54.75219727 32.42173004 C-60.88029477 32.04873358 -66.92606977 31.33147987 -73 30.4375 C-73.97710938 30.29892578 -74.95421875 30.16035156 -75.9609375 30.01757812 C-78.30814455 29.68390653 -80.65440225 29.34476914 -83 29 C-84.63552474 22.84688633 -84.64604948 16.17268556 -83 10 C-79.48392209 8.82797403 -76.0718231 8.53846286 -72.40625 8.203125 C-70.81823955 8.05020339 -69.23026925 7.89686438 -67.64233398 7.74316406 C-66.80386932 7.66296021 -65.96540466 7.58275635 -65.10153198 7.50012207 C-48.99476724 5.95155093 -32.99267847 4.011047 -16.99609375 1.57519531 C-16.29803116 1.47013672 -15.59996857 1.36507813 -14.88075256 1.25683594 C-13.01151325 0.97434598 -11.14328369 0.68519655 -9.27514648 0.39550781 C-6.1113785 0.01345011 -3.17968824 -0.23445233 0 0 Z " fill="#FFFFFF" transform="translate(1419,1445)"/>
<path d="M0 0 C0.9075 0.825 1.815 1.65 2.75 2.5 C3.30042969 2.98984375 3.85085938 3.4796875 4.41796875 3.984375 C16.80258268 16.34164983 20.80157019 37.88157743 23.75 54.5 C25.19764643 46.03385345 25.84055332 37.82349473 25.63671875 29.234375 C25.62254913 28.5052037 25.60837952 27.77603241 25.59378052 27.02476501 C25.51898051 23.313938 25.4056105 19.61029617 25.23632812 15.90258789 C24.91654204 5.84877262 24.91654204 5.84877262 27.16796875 2.20532227 C30.1620803 -0.52140028 33.22790103 -2.33076342 37.375 -2.1875 C40.90244647 -1.94069914 41.77489771 -1.48132672 44.75 0.75 C48.94013883 6.51144089 48.32977276 13.56568471 47.32568359 20.37939453 C46.74193028 23.45180697 46.10192115 26.50654089 45.4375 29.5625 C44.9779526 31.77318547 44.51962295 33.98412443 44.0625 36.1953125 C43.83820313 37.26813477 43.61390625 38.34095703 43.3828125 39.44628906 C40.28274207 54.33924427 40.28274207 54.33924427 39.75 69.5 C40.41 69.83 41.07 70.16 41.75 70.5 C41.33791189 75.75412337 40.57282913 78.78336057 36.75 82.5 C32.77916043 84.75371975 29.25943346 84.89556434 24.75 84.5 C19.72907101 82.69246556 16.76020927 79.80808476 13.75 75.5 C12.4140625 72.4765625 12.4140625 72.4765625 11.375 69.125 C11.1785791 68.50359131 10.9821582 67.88218262 10.77978516 67.24194336 C8.47870367 59.85967314 6.36138177 52.41497709 4.24853516 44.97705078 C2.6459946 39.37230095 0.88400176 33.92553781 -1.25 28.5 C-5.39700608 49.26743963 -5.39700608 49.26743963 -1.25 69.5 C-0.8755589 74.46134453 -1.01101867 77.61322241 -4.25 81.5 C-8.30815166 84.11525329 -11.44144587 85.20124748 -16.25 84.5 C-20.47456935 82.42913267 -23.1778516 80.25081344 -24.77734375 75.7109375 C-26.99287811 65.34736356 -24.41607866 55.28186872 -21.92675781 45.24121094 C-21.14989535 42.09452561 -20.39827525 38.9422948 -19.6484375 35.7890625 C-18.19608193 29.68934087 -16.72786168 23.59358798 -15.25 17.5 C-18.18443402 17.76656572 -18.18443402 17.76656572 -21.25 18.5 C-21.91 19.49 -22.57 20.48 -23.25 21.5 C-23.91 21.5 -24.57 21.5 -25.25 21.5 C-25.73980088 13.66318587 -24.94523857 7.66690532 -19.75 1.5625 C-14.31891585 -2.91814442 -6.23292751 -2.87673577 0 0 Z " fill="#FFFFFF" transform="translate(909.25,1812.5)"/>
<path d="M0 0 C7.8228903 7.970492 10.81870398 16.83042895 11.3125 27.875 C11.13594142 42.27433301 5.89365327 56.58145012 -3.9609375 67.15234375 C-14.15823628 76.39242483 -24.73505613 79.64351751 -38.30078125 79.35546875 C-45.62024568 78.65212 -52.77763166 76.38556735 -58 71 C-62.19837637 65.08922108 -61.86810524 58.98886888 -61 52 C-59.79840408 45.72118115 -57.90255141 39.61478598 -56.0625 33.5 C-55.35515263 31.0891707 -54.65308886 28.67687831 -53.95347595 26.26379395 C-53.52062274 24.77735395 -53.08245024 23.2924484 -52.63795471 21.80944824 C-51.47667298 17.89209099 -50.57752068 14.045408 -50 10 C-55.20202118 12.84872589 -57.66134991 16.10224985 -60.703125 21.171875 C-61.13109375 21.77515625 -61.5590625 22.3784375 -62 23 C-62.66 23 -63.32 23 -64 23 C-63.81397939 14.10483269 -62.36820343 6.49518609 -55.984375 -0.07421875 C-51.07850038 -4.1653065 -46.1872527 -6.51837819 -40 -8 C-38.6078125 -8.3403125 -38.6078125 -8.3403125 -37.1875 -8.6875 C-23.77025719 -10.00291596 -10.86344427 -8.64564769 0 0 Z M-33 7 C-32.96519531 7.57363281 -32.93039062 8.14726563 -32.89453125 8.73828125 C-32.47436234 21.92358171 -35.38355718 35.15614579 -38.44921875 47.921875 C-39.35686571 52.99439843 -39.92075144 56.66072518 -36.9375 61 C-34.11853758 63.31171856 -34.11853758 63.31171856 -30.5625 63.0625 C-23.65079408 61.00111403 -20.0415567 57.47308366 -16.32421875 51.47265625 C-11.45918207 42.38838422 -10.44202445 32.20196243 -12.62109375 22.12890625 C-14.74627356 15.92338121 -18.2511156 11.270744 -24 8 C-27.03247092 7.21955012 -29.87429475 6.949352 -33 7 Z " fill="#FFFFFF" transform="translate(447,1818)"/>
<path d="M0 0 C5.93445358 4.87943961 9.55184923 8.95802595 10.6875 16.765625 C11.04136897 23.97570517 8.92772551 29.05061667 4.390625 34.58984375 C0.98407706 38.30837752 -2.34682196 40.8230606 -7.1875 42.3125 C-8.5075 42.3125 -9.8275 42.3125 -11.1875 42.3125 C-9.56750637 45.10710058 -7.94065978 47.89765045 -6.3125 50.6875 C-5.85230469 51.4815625 -5.39210938 52.275625 -4.91796875 53.09375 C-4.47324219 53.85429688 -4.02851562 54.61484375 -3.5703125 55.3984375 C-3.16184082 56.1001709 -2.75336914 56.8019043 -2.33251953 57.52490234 C-1.18341948 59.45927145 -1.18341948 59.45927145 0.8125 61.3125 C3.8125 61.72916667 3.8125 61.72916667 6.8125 61.3125 C7.8025 59.8275 7.8025 59.8275 8.8125 58.3125 C10.2975 58.8075 10.2975 58.8075 11.8125 59.3125 C12.25999103 66.77068379 12.53259376 73.17637811 7.8125 79.3125 C4.30177502 82.6560476 1.54213091 83.58525047 -3.1875 83.8125 C-7.97000678 83.569079 -10.63667471 82.70192414 -14.1875 79.3125 C-20.84686777 71.05267644 -23.86968744 60.15429112 -27.43481445 50.30859375 C-28.15998539 48.28180175 -28.15998539 48.28180175 -29.1875 46.3125 C-31.73958304 54.68333236 -32.77169305 62.73362429 -33.18896484 71.45605469 C-33.63161786 77.69685578 -33.63161786 77.69685578 -36.4765625 80.84765625 C-40.40295305 82.96926498 -43.74926368 83.51423801 -48.1875 83.3125 C-52.49248234 81.62794169 -54.11233577 79.35238554 -56.1875 75.3125 C-58.75738201 60.19418514 -51.05736027 43.49035375 -46.18579102 29.54077148 C-45.60655884 27.85963257 -45.60655884 27.85963257 -45.015625 26.14453125 C-44.4882373 24.63983276 -44.4882373 24.63983276 -43.95019531 23.10473633 C-43.20120869 20.36268765 -43.03633755 18.13775195 -43.1875 15.3125 C-48.11024603 17.55011183 -50.56581574 21.17991457 -53.63671875 25.44921875 C-54.40435547 26.37154297 -54.40435547 26.37154297 -55.1875 27.3125 C-55.8475 27.3125 -56.5075 27.3125 -57.1875 27.3125 C-56.75250246 17.91655311 -54.03452637 11.30391988 -47.08984375 4.84375 C-34.83417871 -5.02117956 -13.93391114 -7.37677649 0 0 Z M-25.1875 11.3125 C-25.5175 17.9125 -25.8475 24.5125 -26.1875 31.3125 C-19.27627021 31.57294923 -19.27627021 31.57294923 -14.1875 28.3125 C-11.79210698 25.33890867 -11.21505676 23.57428923 -10.8125 19.75 C-11.20392471 16.16194015 -11.62057783 14.78435098 -14.1875 12.3125 C-17.92536479 10.89086298 -17.92536479 10.89086298 -25.1875 11.3125 Z " fill="#FFFFFF" transform="translate(1203.1875,1813.6875)"/>
<path d="M0 0 C3.19076946 2.03048966 5.33849166 3.9037734 6.18359375 7.6953125 C6.19563015 14.4116253 4.74605512 20.55419254 3.18237305 27.04296875 C1.78848999 33.01298431 1.26326566 38.61173912 1.75 44.75 C6.23331063 44.4782842 9.11018589 42.57188468 12.34521484 39.63134766 C14.93684809 36.16052287 14.40685741 32.58618688 14.0625 28.4375 C13.50679746 19.19801903 13.70211847 11.26403462 19.75 3.75 C22.84780948 1.68479368 23.7040481 1.45522976 27.25 1.4375 C28.0234375 1.42074219 28.796875 1.40398437 29.59375 1.38671875 C32.27867986 1.83907106 33.10878405 2.61341705 34.75 4.75 C36.98713027 11.46139082 36.03963724 19.13294839 33.75 25.75 C32.88809514 27.31088868 31.99122569 28.85292179 31.0625 30.375 C29.12391925 33.64599761 28.75 34.64466425 28.75 38.625 C29.8640863 42.4055901 29.8640863 42.4055901 32.75 44.75 C35.24192611 45.13894914 35.24192611 45.13894914 37.75 43.75 C43.78007336 37.54257154 45.64707514 27.81367189 45.78955078 19.41992188 C45.74248879 16.20423396 45.68536517 13.00052401 45.46411133 9.79150391 C45.3671875 7.5859375 45.3671875 7.5859375 45.75 3.75 C49.41467129 -0.13677258 52.9392403 -1.39434328 58.1875 -1.5625 C61.52027894 -1.52998508 62.46896902 -1.45374746 65.25 0.5625 C70.31592974 7.95031421 68.55659842 21.1961758 67.06640625 29.609375 C64.06143266 40.03326679 59.05272919 49.72400532 49.75 55.75 C42.3399849 59.348235 35.62819261 61.19753792 27.625 58.5 C22.39331065 56.34458446 19.05428477 53.28510718 15.75 48.75 C15.1209375 49.29269531 14.491875 49.83539062 13.84375 50.39453125 C7.4596269 55.73065824 2.09929922 59.70770496 -6.375 60.125 C-11.6286072 59.6165864 -14.64749296 58.17926304 -18.5625 54.6875 C-24.28727559 44.72214989 -19.76744672 32.47436136 -17.0625 22.125 C-16.3500412 19.16555574 -16.06117973 16.77112438 -16.25 13.75 C-16.848125 13.915 -17.44625 14.08 -18.0625 14.25 C-20.25 14.75 -20.25 14.75 -23.25 14.75 C-22.89496506 8.83275106 -21.5439334 5.85724064 -17.25 1.75 C-11.32668587 -1.54073007 -6.40151459 -2.462121 0 0 Z " fill="#FFFFFF" transform="translate(1050.25,1837.25)"/>
<path d="M0 0 C3.94765914 3.15812731 5.489714 5.72594079 6.1875 10.75 C6.6 10.37488281 7.0125 9.99976563 7.4375 9.61328125 C13.30697243 4.41198537 19.4851734 -0.90167951 27.5625 -1.5 C31.47033586 -1.23049408 33.19268005 -0.73142225 36.1875 1.75 C40.47449934 10.51886228 38.03169556 20.47373458 36.26171875 29.64331055 C35.29130865 34.76887206 34.90227334 39.52084449 35.1875 44.75 C38.1575 44.255 38.1575 44.255 41.1875 43.75 C40.83246506 49.66724894 39.4814334 52.64275936 35.1875 56.75 C30.41510532 59.59508144 26.66035153 60.22049281 21.2734375 59.40234375 C17.98303929 58.37332408 16.26650431 56.41372427 14.1875 53.75 C10.37181464 46.11862927 13.64166942 34.73508242 15.51953125 26.90625 C16.3359567 23.0485204 16.42276035 19.67100583 16.1875 15.75 C9.96795668 18.45218023 5.90187378 20.87351221 3.05078125 27.3203125 C1.73690351 32.54015256 2.47364402 37.45162369 2.99804688 42.76171875 C3.48074089 48.89534578 2.40946957 52.35857276 -1 57.5625 C-4.05917986 59.56679025 -7.24194959 59.97234197 -10.8125 59.75 C-14.159623 58.59087958 -16.97311472 57.00907792 -18.984375 53.9921875 C-22.15798252 45.39949544 -19.56251633 35.22206447 -17.23583984 26.70043945 C-16.03404738 22.22876553 -15.61912995 18.3848385 -15.8125 13.75 C-18.1225 14.41 -20.4325 15.07 -22.8125 15.75 C-23.59891068 13.4473073 -23.9173623 12.1202724 -23.24609375 9.75 C-20.85684022 4.95275369 -18.68522727 2.34187621 -13.8125 -0.25 C-8.98799824 -1.85816725 -4.6231662 -2.05474053 0 0 Z " fill="#FFFFFF" transform="translate(707.8125,1837.25)"/>
<path d="M0 0 C3.00433134 1.93612464 4.76792424 3.90291141 6.8125 6.8125 C7.039375 6.049375 7.26625 5.28625 7.5 4.5 C9.17514849 1.06993404 10.27463383 0.24270122 13.8125 -1.1875 C18.50162447 -1.89692474 22.35067233 -1.86720634 26.375 0.8125 C27.179375 1.4725 27.98375 2.1325 28.8125 2.8125 C28.21369052 8.78018084 26.96212229 14.24457264 25.3125 20 C21.58050014 32.83751357 21.58050014 32.83751357 22.8125 45.8125 C24.7925 45.1525 26.7725 44.4925 28.8125 43.8125 C28.56581325 48.00617478 28.25946258 50.2662124 25.5625 53.5625 C20.53033343 57.67972719 16.52415661 60.19800893 9.9140625 60.08984375 C6.39045751 59.62483268 4.40820042 58.16099085 1.8125 55.8125 C0.4375 52.5625 0.4375 52.5625 -0.1875 49.8125 C-0.55101562 50.28300781 -0.91453125 50.75351563 -1.2890625 51.23828125 C-4.51284277 55.23080913 -7.14949656 58.2319499 -12.1875 59.8125 C-17.05873189 60.09336382 -20.34167876 59.33914341 -24.5 56.75 C-31.54638127 49.0481414 -32.4695486 40.9794055 -32.33203125 30.828125 C-31.88532585 21.50767711 -28.74405863 12.96475551 -22.484375 5.88671875 C-15.99166362 -0.00644045 -8.58275955 -3.19749866 0 0 Z M-6.875 14.3125 C-12.37230437 22.11512556 -13.33511258 29.29406626 -12.1875 38.8125 C-10.7880976 41.67013944 -10.7880976 41.67013944 -9.1875 43.8125 C-6.09325381 43.58329658 -5.03078556 42.6638222 -2.75 40.5 C1.94784411 34.49315908 5.1129612 26.38213623 5.8125 18.8125 C3.99438596 14.95809824 2.82238023 13.24223627 -1.125 11.5625 C-4.4222603 11.51347015 -4.4222603 11.51347015 -6.875 14.3125 Z " fill="#FFFFFF" transform="translate(1315.1875,1837.1875)"/>
<path d="M0 0 C6.99493033 5.01256141 10.41390317 10.97832977 11.9296875 19.3828125 C12.93790222 28.16868361 10.26906323 37.62426088 5.1171875 44.8203125 C4.08929452 46.03789146 3.02696244 47.22736877 1.9296875 48.3828125 C1.40503906 48.93582031 0.88039063 49.48882813 0.33984375 50.05859375 C-6.30928687 56.36353408 -13.49695093 58.60841648 -22.5703125 58.8828125 C-29.88904884 58.6538712 -36.22348947 57.68944336 -41.90625 52.8046875 C-48.49373513 45.67092311 -49.80322456 37.92365365 -49.48046875 28.46484375 C-48.76991927 18.92477033 -44.14507949 10.69590685 -37.0703125 4.3828125 C-26.99994668 -3.3834854 -11.57715819 -6.24729668 0 0 Z M-23.2578125 10.4453125 C-26.97246534 16.46561192 -27.41165922 22.50575463 -27.3828125 29.3828125 C-27.39892578 30.15109375 -27.41503906 30.919375 -27.43164062 31.7109375 C-27.43614799 37.01160233 -26.53746747 40.67660934 -24.0703125 45.3828125 C-22.20212999 47.70147809 -22.20212999 47.70147809 -19.1953125 47.5078125 C-15.68180161 46.24294858 -15.38719079 45.79607438 -13.7578125 42.6328125 C-9.94602648 34.2050662 -9.26513832 22.30776076 -12.4453125 13.5703125 C-13.86276863 10.3844852 -13.86276863 10.3844852 -16.0703125 8.3828125 C-19.57377733 7.7374374 -20.63367723 7.97112782 -23.2578125 10.4453125 Z " fill="#FFFFFF" transform="translate(845.0703125,1838.6171875)"/>
<path d="M0 0 C3.63474036 4.38032812 3.50464974 8.69439795 3.4375 14.125 C3.42992676 14.97304199 3.42235352 15.82108398 3.41455078 16.69482422 C3.09020406 29.083922 -1.91678424 38.81010908 -10.375 47.75 C-18.25126078 55.16395852 -28.41834507 59.96853812 -39.375 60.4375 C-44.77394422 59.78590328 -48.5433545 58.49497828 -52.375 54.5625 C-56.61944819 47.8693317 -55.09612734 39.30718359 -53.55566406 31.84863281 C-52.88058932 28.99392166 -52.15411963 26.1583864 -51.37231445 23.33105469 C-50.46433295 20.03551063 -50 17.45997742 -50 14 C-52.31 14.33 -54.62 14.66 -57 15 C-56.58552254 9.71541239 -55.77762551 6.77762551 -52 3 C-47.61803175 -0.60867973 -42.53620122 -1.1594426 -37 -1 C-32.85122738 0.48170451 -31.44742125 1.32886813 -29 5 C-27.8557788 12.90310922 -29.6068493 20.23387814 -31.56787109 27.82250977 C-32.96106694 33.35446461 -33.36343362 38.27592045 -33 44 C-31.515 44.495 -31.515 44.495 -30 45 C-24.34658186 41.75229171 -22.57895163 37.73506831 -20.74609375 31.59765625 C-19.08386877 23.58242482 -18.87411295 15.29752331 -19.11328125 7.1328125 C-19 4 -19 4 -16.9375 1.6875 C-10.93455674 -1.76099932 -6.49591008 -2.873191 0 0 Z " fill="#FFFFFF" transform="translate(558,1837)"/>
<path d="M0 0 C4.85423486 3.01806776 6.89543238 6.67892501 8.25 12.1875 C8.74069005 18.44679011 6.51906029 23.54792299 3.125 28.6875 C-1.70591561 33.30370825 -6.97657733 35.84035455 -13.6640625 36.421875 C-17.87193675 36.32439529 -21.91966997 35.25891501 -25.6875 33.375 C-23.96428865 37.88103713 -22.59451996 40.77032003 -18.5 43.5 C-11.88389032 45.0184514 -6.91854972 43.31978123 -1.1875 39.875 C1.57874117 38.09597024 1.57874117 38.09597024 3.3125 35.375 C3.9725 35.375 4.6325 35.375 5.3125 35.375 C5.73632501 41.41450644 5.18383524 45.49574316 1.3125 50.375 C-4.23286356 56.49501264 -10.14226724 59.02273223 -18.31640625 59.65625 C-27.32636073 59.87098576 -33.38876837 59.26837706 -40.9375 54.1875 C-46.38774903 48.61338167 -48.78129462 42.11026382 -49 34.375 C-48.85326435 24.35695692 -45.49180408 16.13040435 -38.96484375 8.5703125 C-29.20880938 -0.83430382 -12.89874997 -5.81898495 0 0 Z M-22.6875 13.375 C-24.83068265 17.43965674 -26.23177708 20.74864485 -25.6875 25.375 C-24.12820032 26.93429968 -22.59890432 26.69441003 -20.4375 26.8125 C-16.52281555 26.75639783 -15.86923482 26.52644568 -12.6875 23.875 C-10.13634953 20.14571407 -9.6875 16.85493394 -9.6875 12.375 C-10.64867905 10.24629307 -10.64867905 10.24629307 -12.6875 9.375 C-17.29645177 8.52598257 -19.50754986 10.11136696 -22.6875 13.375 Z " fill="#FFFFFF" transform="translate(1551.6875,1837.625)"/>
<path d="M0 0 C3.87048777 3.20213034 5.63303478 6.6453756 6.515625 11.50390625 C6.93584599 17.73368248 4.90582621 23.24402324 1.0390625 28.11328125 C-3.89775563 32.8395242 -10.16139822 35.21337834 -16.984375 35.27734375 C-20.96728006 34.92359889 -23.95461335 34.17707235 -27.484375 32.25390625 C-25.76116365 36.75994338 -24.39139496 39.64922628 -20.296875 42.37890625 C-13.68076532 43.89735765 -8.71542472 42.19868748 -2.984375 38.75390625 C-0.21813383 36.97487649 -0.21813383 36.97487649 1.515625 34.25390625 C2.175625 34.25390625 2.835625 34.25390625 3.515625 34.25390625 C3.80527214 39.85375103 3.77238021 43.47054703 0.515625 48.25390625 C-5.48407747 54.81696107 -11.26645005 57.85469001 -20.109375 58.53125 C-28.74200197 58.74535285 -34.94149096 58.24807983 -42.234375 53.44140625 C-48.26385614 47.5794107 -50.50582244 41.28882136 -50.859375 33.00390625 C-50.63349061 22.69793082 -46.04577357 12.72974484 -38.70703125 5.50390625 C-28.63834576 -2.7322373 -11.75256737 -7.33258008 0 0 Z M-24.484375 12.25390625 C-26.62755765 16.31856299 -28.02865208 19.6275511 -27.484375 24.25390625 C-25.92507532 25.81320593 -24.39577932 25.57331628 -22.234375 25.69140625 C-18.31969055 25.63530408 -17.66610982 25.40535193 -14.484375 22.75390625 C-11.93322453 19.02462032 -11.484375 15.73384019 -11.484375 11.25390625 C-12.44555405 9.12519932 -12.44555405 9.12519932 -14.484375 8.25390625 C-19.09332677 7.40488882 -21.30442486 8.99027321 -24.484375 12.25390625 Z " fill="#FFFFFF" transform="translate(1015.484375,1838.74609375)"/>
<path d="M0 0 C3.76602204 3.27480178 5.78813882 5.40470053 6.203125 10.48828125 C6.32437721 17.79372663 5.61034427 22.12192811 0.5625 27.6875 C-5.04327175 32.74636719 -9.41268627 34.45950588 -17 35 C-20.17739366 34.62108668 -22.91443088 33.91049581 -26 33 C-26.2525896 36.06336666 -26.2525896 36.06336666 -24.5 38.5625 C-21.30511368 41.67751417 -18.38606706 42.81401836 -14 43 C-7.93656909 42.08319258 -3.75356535 39.42722307 0.58984375 35.20703125 C2 34 2 34 4 34 C4.49860569 39.98326826 3.36466335 44.00046888 0 49 C-5.48798307 54.88954281 -12.53181852 57.50241849 -20.47265625 58.38671875 C-28.70598749 58.64653007 -36.38072119 57.96218395 -42.83984375 52.421875 C-49.49663194 45.195435 -50.63520305 38.5191952 -50.40625 28.85546875 C-49.35261771 18.85609303 -44.6298933 10.49953874 -37 4 C-26.48001477 -2.9064723 -11.52248942 -7.26417811 0 0 Z M-25 13 C-26.61535244 16.49591199 -28 20.1156324 -28 24 C-24.77659223 25.61170388 -21.48558081 25.59542551 -18 25 C-14.3479022 22.22122994 -12.11931626 19.47726504 -11 15 C-11.31435559 11.62067741 -11.57479454 10.42520546 -14 8 C-18.85398444 7.05616969 -22.0549543 9.3102301 -25 13 Z " fill="#FFFFFF" transform="translate(1272,1839)"/>
<path d="M0 0 C3.92529712 3.87364847 6.1495477 7.08462165 6.3125 12.625 C6.22337057 18.8105823 4.6193094 23.26522221 0.31640625 27.7578125 C-4.94906113 32.445777 -9.79192459 34.9242584 -17 35 C-20.82259387 34.45130232 -24.53256736 33.73371632 -28 32 C-26.69877644 35.60404683 -25.43146032 38.94983159 -22.26953125 41.26953125 C-17.75504667 43.2429287 -13.95813669 43.2344474 -9.2421875 41.9453125 C-5.98439035 40.57181614 -3.41980641 38.60638029 -0.7265625 36.33984375 C1 35 1 35 4 34 C3.97348798 40.46893373 3.16374272 45.20108619 -1.05078125 50.2421875 C-8.90383491 57.32409962 -18.07259707 58.4858654 -28.23046875 58.26953125 C-35.50282643 57.74953884 -39.98285216 55.41401058 -44.9375 50.125 C-50.39370223 43.75298132 -50.43104343 36.82916088 -50.3203125 28.76953125 C-49.87953172 23.58229398 -48.46686903 19.54694675 -46 15 C-45.443125 13.96875 -44.88625 12.9375 -44.3125 11.875 C-34.24831875 -0.63722534 -15.23490659 -9.93580864 0 0 Z M-23 10 C-26.25255073 14.73943107 -27.53500698 18.30383545 -28 24 C-24.77181502 25.61409249 -21.49049218 25.5828653 -18 25 C-14.48671229 22.47959795 -13.20013665 20.46698551 -11.5 16.5 C-10.7259454 13.03872959 -10.7259454 13.03872959 -12.0625 10.0625 C-13.81837787 7.78249473 -13.81837787 7.78249473 -16.4375 7.5625 C-19.22681377 8.0387243 -20.72136203 8.30939764 -23 10 Z " fill="#FFFFFF" transform="translate(616,1839)"/>
<path d="M0 0 C0.71720215 -0.01015137 1.4344043 -0.02030273 2.17333984 -0.03076172 C8.02343914 0.06599045 11.86764239 1.78918012 16.5625 5.125 C18.50830214 7.89402612 18.81175955 10.1018031 18.6484375 13.46875 C17.86246482 16.82578586 15.84098344 18.40110573 13.1875 20.4375 C9.71424819 21.5952506 6.82682552 21.50616652 3.1875 21.4375 C2.1975 18.4675 1.2075 15.4975 0.1875 12.4375 C-2.1225 12.1075 -4.4325 11.7775 -6.8125 11.4375 C-7.76270416 13.677335 -7.76270416 13.677335 -7.8125 16.4375 C-4.1137404 20.8919983 0.15284959 23.30870652 5.1875 25.9375 C16.97793934 32.09376261 16.97793934 32.09376261 19 37.68359375 C19.43953504 42.82065958 19.30605668 46.090421 16.1875 50.4375 C9.59333169 57.95485187 1.63161073 61.09621115 -8.234375 61.8515625 C-16.89259658 62.24754256 -24.71739338 62.04866275 -31.8125 56.4375 C-34.39920112 53.5464811 -34.73903851 51.87826897 -35.375 48.0625 C-34.63088979 43.26712311 -32.45314249 40.57323587 -28.8125 37.4375 C-25.33924819 36.2797494 -22.45182552 36.36883348 -18.8125 36.4375 C-18.72613281 37.10136719 -18.63976563 37.76523438 -18.55078125 38.44921875 C-17.84200153 42.9034766 -17.19956331 45.88916032 -14.5625 49.625 C-11.89884801 51.772827 -11.89884801 51.772827 -8.5 51.25 C-7.613125 50.981875 -6.72625 50.71375 -5.8125 50.4375 C-4.86229584 48.197665 -4.86229584 48.197665 -4.8125 45.4375 C-8.77431615 40.80406168 -13.4678401 37.97606509 -18.640625 34.91992188 C-23.40462339 31.99420547 -27.53014234 28.73587186 -29.625 23.34765625 C-30.13862889 18.28627154 -29.47578933 14.93180074 -26.8125 10.4375 C-19.88762188 2.23388018 -10.28978947 0.10416113 0 0 Z " fill="#FFFFFF" transform="translate(1597.8125,1835.5625)"/>
<path d="M0 0 C1.01964844 -0.00773437 2.03929687 -0.01546875 3.08984375 -0.0234375 C6.41157205 0.42178758 8.33436865 1.47585884 11.0625 3.375 C10.38668477 9.45733706 9.32611972 15.38814152 8.0625 21.375 C10.7025 21.705 13.3425 22.035 16.0625 22.375 C17.17908501 27.06465706 16.86869523 29.91263531 15.0625 34.375 C11.7625 34.375 8.4625 34.375 5.0625 34.375 C4.50289453 38.06057368 3.96436304 41.74722625 3.4375 45.4375 C3.27765625 46.47583984 3.1178125 47.51417969 2.953125 48.58398438 C2.12915436 54.48286508 1.86318316 58.79759578 4.0625 64.375 C7.66993617 65.40224632 7.66993617 65.40224632 11.1875 64.4375 C11.80625 64.086875 12.425 63.73625 13.0625 63.375 C14.0525 63.375 15.0425 63.375 16.0625 63.375 C14.46424278 69.81008829 12.87011238 73.64936187 7.0625 77.375 C2.08926715 79.87172462 -2.32050127 80.99911097 -7.9375 80.375 C-12.61920268 78.63083626 -15.14999191 76.50464161 -17.9375 72.375 C-21.70021942 61.08684173 -18.33094171 46.70974469 -15.9375 35.375 C-15.6075 34.715 -15.2775 34.055 -14.9375 33.375 C-19.3925 33.87 -19.3925 33.87 -23.9375 34.375 C-21.65115487 29.80230974 -19.94387934 28.3797845 -15.9375 25.375 C-15.2775 25.375 -14.6175 25.375 -13.9375 25.375 C-13.83727539 24.72426514 -13.73705078 24.07353027 -13.63378906 23.40307617 C-13.1692971 20.45313092 -12.67873949 17.50810396 -12.1875 14.5625 C-12.03023437 13.53833984 -11.87296875 12.51417969 -11.7109375 11.45898438 C-11.54335937 10.47607422 -11.37578125 9.49316406 -11.203125 8.48046875 C-11.05649414 7.57449951 -10.90986328 6.66853027 -10.75878906 5.73510742 C-8.93479802 0.49357312 -5.07556218 -0.03840274 0 0 Z " fill="#FFFFFF" transform="translate(1444.9375,1816.625)"/>
<path d="M0 0 C1.546875 -0.00773437 1.546875 -0.00773437 3.125 -0.015625 C6.0345916 0.25319596 7.6847368 0.47067735 10 2.25 C11.44829891 6.17051146 10.77435156 8.96475897 9.5625 12.875 C8.6432019 15.88436149 8 18.09107466 8 21.25 C10.64 21.58 13.28 21.91 16 22.25 C16.02712066 23.68739513 16.04645067 25.12493863 16.0625 26.5625 C16.07410156 27.36300781 16.08570313 28.16351562 16.09765625 28.98828125 C16 31.25 16 31.25 15 34.25 C11.37 33.92 7.74 33.59 4 33.25 C3.40061706 40.10009078 2.84946716 46.95265847 2.375 53.8125 C2.32287354 54.50279297 2.27074707 55.19308594 2.21704102 55.90429688 C2.00834274 59.04759608 1.99217975 61.22653925 3 64.25 C7.23658457 65.21286013 9.22349378 65.33358964 13 63.25 C13.99 63.58 14.98 63.91 16 64.25 C13.37298883 71.30145103 9.85246722 75.73591425 3 79.25 C-1.74454125 80.98966513 -6.51799103 80.83117999 -11.1875 79 C-17.45887738 75.09780963 -17.45887738 75.09780963 -18.65454102 71.01489258 C-20.09597803 63.81164046 -19.83502171 57.66069682 -18.6875 50.4375 C-18.54376953 49.44041016 -18.40003906 48.44332031 -18.25195312 47.41601562 C-17.56246444 42.68404537 -16.80820511 37.96319616 -16 33.25 C-18.64 33.58 -21.28 33.91 -24 34.25 C-22.9789114 30.57408105 -22.08564783 29.3160202 -19 26.9375 C-16 25.25 -16 25.25 -14 25.25 C-13.81824219 23.89068359 -13.81824219 23.89068359 -13.6328125 22.50390625 C-11.56351792 7.46172638 -11.56351792 7.46172638 -10 2.25 C-6.81591231 -0.03902156 -3.83646861 -0.01918234 0 0 Z " fill="#FFFFFF" transform="translate(776,1816.75)"/>
<path d="M0 0 C2.99452434 2.24589325 3.81623122 3.44869367 5 7 C6.00647816 19.11795579 3.63498592 30.30122267 1 42.0625 C0.42412622 44.68074493 -0.14720914 47.29984012 -0.71191406 49.92051697 C-1.06082111 51.53485519 -1.41653119 53.14774392 -1.78027344 54.75880432 C-3.52353873 61.98084503 -3.52353873 61.98084503 -2 69 C0.97 68.01 0.97 68.01 4 67 C4 73.8206278 4 73.8206278 1.2578125 77.0546875 C-2.81814496 80.65287705 -5.69619679 82.77848046 -11.25 83.3125 C-15.7470433 82.93774639 -18.58406347 81.94812093 -22 79 C-26.99442509 71.42780711 -25.64705717 61.52049508 -23.94850159 52.97883606 C-23.19117763 49.43508393 -22.38619236 45.90385036 -21.5625 42.375 C-17.52576873 26.65397853 -17.52576873 26.65397853 -17.625 10.625 C-18 7 -18 7 -16.9375 4.1875 C-12.10704324 -1.2662415 -6.74740531 -1.91133725 0 0 Z " fill="#FFFFFF" transform="translate(1375,1814)"/>
<path d="M0 0 C2.4480653 3.49201638 3.07892419 5.30561892 2.59375 9.57421875 C2.2470983 10.94995553 1.88102176 12.32088319 1.5 13.6875 C1.10100016 15.29968188 0.70676384 16.91304754 0.31640625 18.52734375 C0.10129395 19.40374512 -0.11381836 20.28014648 -0.33544922 21.18310547 C-1.55308978 26.34443421 -2.57115784 31.541099 -3.5625 36.75 C-3.7785791 37.87245117 -3.9946582 38.99490234 -4.21728516 40.15136719 C-5.37962355 46.51354691 -6.23191043 52.81984084 -6.73828125 59.26171875 C-6.79442093 59.94632172 -6.85056061 60.63092468 -6.90840149 61.33627319 C-7.17715925 64.6756459 -7.40367207 68.00583777 -7.57250977 71.35253906 C-8.20612471 80.1162735 -8.20612471 80.1162735 -10.53369141 82.70727539 C-14.57670222 85.1340468 -18.40298845 85.76616859 -23 85 C-26.4730819 82.2819359 -28.23028867 80.30345355 -29 76 C-29.73220093 66.71999322 -28.17572516 57.5256489 -26.8125 48.375 C-26.64451904 47.23112823 -26.64451904 47.23112823 -26.47314453 46.06414795 C-24.97416927 35.89158088 -23.38484674 25.73387096 -21.5 15.625 C-21.32315674 14.61099121 -21.14631348 13.59698242 -20.96411133 12.55224609 C-19.85506564 6.93469915 -18.74383739 3.62590982 -14 0 C-9.40131047 -2.35044131 -4.53248917 -2.70596368 0 0 Z " fill="#FFFFFF" transform="translate(677,1812)"/>
<path d="M0 0 C2.96253574 2.30419447 4.92724836 4.29136275 5.75390625 8.02734375 C5.935915 16.29054079 3.85166466 23.5550962 1.38500977 31.36303711 C-0.05598197 35.96916356 -1.13769091 39.85540224 -0.75 44.75 C2.22 44.255 2.22 44.255 5.25 43.75 C5.25 50.5706278 5.25 50.5706278 2.5078125 53.8046875 C-1.59467151 57.42629427 -4.47176517 59.53507219 -10.0625 60.0625 C-15.23835112 59.62386855 -18.14607374 57.35392626 -21.75 53.75 C-24.56281905 45.14926483 -21.99266437 37.56880484 -18.8828125 29.5 C-16.88260285 24.01371068 -16.47171685 19.59394622 -16.75 13.75 C-18.07 13.75 -19.39 13.75 -20.75 13.75 C-20.75 14.41 -20.75 15.07 -20.75 15.75 C-21.41 15.75 -22.07 15.75 -22.75 15.75 C-23.22393055 11.86376947 -22.84594873 9.3705661 -20.75 6.125 C-15.68527571 -0.32751597 -7.79647116 -3.54385053 0 0 Z " fill="#FFFFFF" transform="translate(1489.75,1837.25)"/>
<path d="M0 0 C3.29146065 4.83433282 3.36659853 8.51735362 2.51953125 14.109375 C1.08579695 21.23844057 -0.8872333 28.11948843 -3.23046875 35 C-4.04191291 38.09749242 -4.13756215 40.74985291 -4 43.9375 C-2.02 43.2775 -0.04 42.6175 2 41.9375 C2.35028885 45.61553287 2.11347493 47.7010939 0.5 51.0625 C-2.61605243 54.64596029 -5.41996904 56.639287 -10 57.9375 C-14.52887777 58.24697331 -17.93694661 57.50295393 -21.9375 55.375 C-25.41775636 51.26196975 -26.14685596 47.47076536 -25.84375 42.2421875 C-24.86362517 35.1739796 -22.63935019 28.84307892 -19.92578125 22.26171875 C-18.86013346 18.43527881 -19.19375898 15.79279796 -20 11.9375 C-21.98 12.5975 -23.96 13.2575 -26 13.9375 C-25.87536245 7.95489764 -24.00492051 4.91970382 -19.88671875 0.609375 C-14.12838964 -4.49324375 -6.14303324 -4.22333535 0 0 Z " fill="#FFFFFF" transform="translate(1413,1839.0625)"/>
<path d="M0 0 C2.45243461 1.90063682 3.62927427 3.25854855 5 6 C6.18528839 15.81238747 4.21381695 23.92417161 1.13452148 33.15771484 C-0.8204336 38.93515767 -0.8204336 38.93515767 -1 45 C1.97 44.505 1.97 44.505 5 44 C5.48016987 47.93739295 5.07080102 50.41086118 2.9375 53.6875 C0.10856268 57.26131157 -2.53650135 58.80973369 -7 60 C-11.53154468 60.17908166 -14.95697915 59.57699026 -18.9375 57.375 C-22.53183553 53.23606818 -23.23664411 48.97679748 -23 43.625 C-22.30712546 37.84216246 -20.17970597 32.51845251 -17.99609375 27.15283203 C-16.09620459 22.26107197 -15.8289725 19.13502287 -17 14 C-18.98 14.66 -20.96 15.32 -23 16 C-22.53395651 11.24635636 -21.97710055 7.79836967 -19 4 C-12.70084586 -0.82488402 -7.67593513 -1.86254308 0 0 Z " fill="#FFFFFF" transform="translate(487,1837)"/>
<path d="M0 0 C3.12068856 1.79273598 4.54965052 3.24259405 6.375 6.3125 C7.22094728 9.95007329 6.96685978 12.39039015 6 16 C1.10579814 21.77264834 1.10579814 21.77264834 -3.20703125 22.23828125 C-10.28164844 22.43980708 -10.28164844 22.43980708 -14.0625 20.125 C-17.0475602 16.851063 -17.34166693 14.54168734 -17.28515625 10.1015625 C-16.81849096 6.66230327 -15.21874413 4.58853482 -13 2 C-8.81059635 -0.56458253 -4.7880916 -0.69256325 0 0 Z " fill="#FFFFFF" transform="translate(1414,1811)"/>
<path d="M0 0 C3.58552881 1.63687185 4.79315055 2.68972583 7 6 C7.68343706 9.77688904 7.85107095 13.47186889 5.94921875 16.88671875 C3.43064171 19.95507367 1.54870144 21.82542818 -2.42578125 22.2734375 C-10.19586771 22.54680996 -10.19586771 22.54680996 -14.125 19.875 C-16.24397473 16.62590542 -17 14.87974077 -17 11 C-15.76415606 6.78359127 -14.57449379 4.52105251 -11.3125 1.5625 C-6.99221812 -0.47536881 -4.74971544 -0.52774616 0 0 Z " fill="#FFFFFF" transform="translate(1493,1811)"/>
<path d="M0 0 C3.75907225 1.91952626 5.22937924 3.89411861 6.5 7.8125 C7.37195705 12.26363312 6.36665555 15.1064699 4 19 C0.2842924 22.4905132 -3.73691443 22.50158141 -8.62109375 22.36328125 C-11.98254685 21.8499559 -13.73782461 20.48109559 -16 18 C-17.6074907 14.78501861 -17.47314549 11.48701742 -17 8 C-13.07884382 0.43777022 -8.13750585 -1.13343831 0 0 Z " fill="#FFFFFF" transform="translate(491,1811)"/>
</svg>
